<svg width="250" height="272" viewBox="0 0 250 272" fill="none" xmlns="http://www.w3.org/2000/svg">
<path fill-rule="evenodd" clip-rule="evenodd" d="M235.137 13.9946C225.682 5.40846 211.057 6.11276 202.471 15.5677C193.885 25.0227 194.589 39.648 204.044 48.2342C213.499 56.8204 228.124 56.1161 236.71 46.6611C245.297 37.2061 244.592 22.5808 235.137 13.9946ZM197.289 10.8618C208.474 -1.45517 227.526 -2.37266 239.843 8.81254C252.16 19.9977 253.078 39.05 241.893 51.367C232.656 61.5384 218.054 63.9359 206.311 58.1636L179.379 99.5092C179.79 99.8535 180.195 100.207 180.595 100.57C197.262 115.706 198.503 141.487 183.368 158.155C180.732 161.057 177.773 163.492 174.596 165.454L199.207 208.608C209.689 204.169 222.249 205.891 231.229 214.046C243.546 225.231 244.464 244.283 233.278 256.6C222.093 268.917 203.041 269.834 190.724 258.649C178.407 247.464 177.49 228.412 188.675 216.095C190.049 214.582 191.541 213.241 193.125 212.074L168.335 168.606C157.42 172.964 144.944 172.449 134.324 166.898L106.987 208.058C107.206 208.242 107.423 208.432 107.636 208.626C114.006 214.41 116.226 223.059 114.116 230.829L127.176 236.459C127.272 236.347 127.369 236.237 127.468 236.128C133.397 229.599 143.496 229.113 150.025 235.042C156.553 240.97 157.04 251.069 151.111 257.598C145.182 264.127 135.083 264.613 128.555 258.684C123.958 254.51 122.356 248.268 123.881 242.661L111.23 237.207C110.613 238.14 109.917 239.037 109.142 239.89C100.924 248.939 86.927 249.613 77.8779 241.395C77.6009 241.144 77.3318 240.887 77.0704 240.625L65.7324 248.9C68.5299 254.605 67.746 261.681 63.2145 266.671C57.2856 273.2 47.1868 273.686 40.6581 267.757C34.1293 261.828 33.643 251.73 39.5718 245.201C45.2662 238.93 54.8073 238.234 61.3374 243.441L72.9743 234.948C68.9883 227.009 70.0423 217.102 76.3724 210.131C78.9296 207.315 82.0465 205.311 85.3998 204.132L82.315 188.099C78.4171 188.149 74.4917 186.781 71.3782 183.954C64.8494 178.025 64.3631 167.926 70.2919 161.397C76.2207 154.869 86.3196 154.382 92.8483 160.311C99.377 166.24 99.8633 176.339 93.9345 182.867C92.5327 184.411 90.8977 185.617 89.1318 186.48L92.2878 202.883C95.2316 202.82 98.1907 203.341 100.977 204.454L128.422 163.131C127.52 162.44 126.64 161.705 125.783 160.928C117.226 153.157 112.735 142.58 112.439 131.871L60.5168 126.368C59.435 131.37 57.0629 136.162 53.3753 140.223C42.1901 152.54 23.1378 153.458 10.8208 142.272C-1.49619 131.087 -2.41368 112.035 8.77152 99.718C19.9567 87.401 39.009 86.4835 51.326 97.6687C57.7187 103.474 61.0406 111.398 61.1935 119.401L112.845 124.875C113.968 117.111 117.34 109.588 123.01 103.343C136.171 88.8507 157.381 86.0212 173.65 95.4805L200.432 54.3636C200.062 54.0581 199.697 53.7423 199.338 53.4163C187.021 42.2311 186.104 23.1788 197.289 10.8618ZM46.6201 102.851C37.1651 94.2647 22.5398 94.969 13.9536 104.424C5.36744 113.879 6.07174 128.504 15.5267 137.09C24.9817 145.677 39.607 144.972 48.1932 135.517C56.7793 126.062 56.075 111.437 46.6201 102.851ZM175.889 105.752C162.083 93.2158 140.729 94.2441 128.192 108.049C115.656 121.855 116.684 143.209 130.489 155.745C144.295 168.282 165.649 167.254 178.185 153.449C190.722 139.643 189.694 118.289 175.889 105.752ZM88.1424 165.493C84.4756 162.163 78.8038 162.436 75.474 166.103C72.1442 169.77 72.4174 175.442 76.0841 178.772C79.7508 182.101 85.4226 181.828 88.7524 178.161C92.0822 174.495 91.8091 168.823 88.1424 165.493ZM102.931 213.808C96.7434 208.189 87.1731 208.65 81.5545 214.837C75.9359 221.024 76.3968 230.595 82.5839 236.213C88.771 241.832 98.3414 241.371 103.96 235.184C109.578 228.997 109.118 219.426 102.931 213.808ZM226.523 219.228C217.068 210.641 202.443 211.346 193.857 220.801C185.271 230.256 185.975 244.881 195.43 253.467C204.885 262.053 219.51 261.349 228.096 251.894C236.683 242.439 235.978 227.814 226.523 219.228ZM145.319 240.224C141.652 236.894 135.98 237.167 132.65 240.834C129.321 244.5 129.594 250.172 133.26 253.502C136.927 256.832 142.599 256.559 145.929 252.892C149.259 249.225 148.986 243.553 145.319 240.224ZM57.4223 249.297C53.7556 245.967 48.0837 246.24 44.7539 249.907C41.4241 253.574 41.6973 259.245 45.364 262.575C49.0307 265.905 54.7025 265.632 58.0323 261.965C61.3621 258.298 61.089 252.627 57.4223 249.297Z" fill="#0B0A0A"/>
</svg>
