<svg width="250" height="272" viewBox="0 0 250 272" fill="none" xmlns="http://www.w3.org/2000/svg" class="" style="">
<path d="M204.961 53.2644L174.094 99.8252M169.067 163.705L197.061 212.804M115.384 128.221L56.98 122.068M132.559 161.695L101.859 208.614M88.7695 206.207L84.5341 185.076M109.186 232.115C109.186 232.115 120.368 237.42 127.527 240.831M77.1822 235.615L60.5741 247.712M42.4167 264.685C37.319 260.055 36.9393 252.17 41.5686 247.072C46.1979 241.975 54.0832 241.595 59.181 246.224C64.2787 250.853 64.6584 258.739 60.0291 263.836C55.3998 268.934 47.5145 269.314 42.4167 264.685ZM79.6361 238.323C72.018 231.405 71.4506 219.621 78.3686 212.003C85.2867 204.385 97.0706 203.817 104.689 210.735C112.307 217.654 112.874 229.437 105.956 237.056C99.0381 244.674 87.2542 245.241 79.6361 238.323ZM130.313 255.612C125.215 250.982 124.836 243.097 129.465 237.999C134.094 232.902 141.98 232.522 147.077 237.151C152.175 241.78 152.555 249.666 147.926 254.763C143.296 259.861 135.411 260.241 130.313 255.612ZM73.5599 182.109C68.4622 177.48 68.0825 169.595 72.7118 164.497C77.3411 159.399 85.2264 159.019 90.3241 163.649C95.4219 168.278 95.8016 176.163 91.1723 181.261C86.543 186.359 78.6577 186.738 73.5599 182.109ZM127.542 157.855C112.306 144.019 111.171 120.451 125.007 105.215C138.843 89.9787 162.411 88.8437 177.647 102.68C192.883 116.516 194.018 140.084 180.182 155.32C166.346 170.556 142.778 171.691 127.542 157.855ZM192.482 255.577C181.596 245.691 180.785 228.852 190.671 217.966C200.557 207.08 217.395 206.269 228.281 216.155C239.167 226.041 239.978 242.88 230.093 253.766C220.207 264.652 203.368 265.462 192.482 255.577ZM12.5785 139.2C1.69255 129.314 0.881633 112.475 10.7673 101.59C20.653 90.7035 37.4918 89.8926 48.3778 99.7783C59.2638 109.664 60.0747 126.503 50.189 137.389C40.3033 148.275 23.4645 149.086 12.5785 139.2ZM201.096 50.3438C190.21 40.4581 189.399 23.6193 199.285 12.7333C209.171 1.84732 226.009 1.03643 236.895 10.9221C247.781 20.8078 248.592 37.6466 238.707 48.5326C228.821 59.4185 211.982 60.2295 201.096 50.3438Z" stroke="#0B0A0A" stroke-width="7" class="QeepMHNW_0"></path>
<style data-made-with="vivus-instant">.QeepMHNW_0{stroke-dasharray:1378 1380;stroke-dashoffset:1379;animation:QeepMHNW_draw 1550ms ease 0ms forwards;}@keyframes QeepMHNW_draw{100%{stroke-dashoffset:0;}}@keyframes QeepMHNW_fade{0%{stroke-opacity:1;}93.04347826086956%{stroke-opacity:1;}100%{stroke-opacity:0;}}</style></svg>
