<svg width="169" height="32" viewBox="0 0 169 32" fill="none" xmlns="http://www.w3.org/2000/svg">
<mask id="mask0" mask-type="alpha" maskUnits="userSpaceOnUse" x="0" y="0" width="169" height="32">
<rect width="169" height="32" fill="#C4C4C4"/>
</mask>
<g mask="url(#mask0)">
<path d="M86.4563 5.62341H68.4663V28.6072H73.1791V22.6947H82.4686V18.3644H73.1791V9.91206H82.378L82.4686 9.87042L86.4563 6.1647L87.0907 5.62341H86.4563Z" fill="#BCBEC0"/>
<path d="M88.3383 8.53779L86.8882 9.91182V28.607H91.6009V5.58154L88.3383 8.53779Z" fill="#BCBEC0"/>
<path d="M132.794 9.8343V28.5711H137.507V5.54565L132.794 9.8343Z" fill="#BCBEC0"/>
<path d="M122.615 19.1611V14.2062H125.379L130.092 9.87593H122.615V5.54565H117.902V19.1611C117.902 22.1173 118.763 24.4074 120.44 25.9479C122.977 28.2796 126.829 28.5711 129.548 28.5711V24.2408C126.648 24.2408 124.745 23.7828 123.793 22.9084C122.977 22.1589 122.615 20.9515 122.615 19.1611Z" fill="#BCBEC0"/>
<path d="M155.674 20.1594C158.075 17.9526 158.438 16.0789 158.438 14.122C158.438 9.37532 154.223 5.50305 149.058 5.50305C143.892 5.50305 139.677 9.37532 139.677 14.122C139.677 17.0366 141.218 19.6597 143.801 21.2836L147.245 18.1192C145.296 17.453 144.345 15.7458 144.345 14.122C144.345 11.7486 146.475 9.79169 149.058 9.79169C151.641 9.79169 153.68 11.7486 153.77 14.122C153.816 15.496 153.272 16.5369 148.015 21.1587L139.632 28.695H158.347V24.4064H150.915L155.674 20.1594Z" fill="#BCBEC0"/>
<path d="M165.089 12.7055C167.216 12.7055 168.94 11.0836 168.94 9.08302C168.94 7.0824 167.216 5.46057 165.089 5.46057C162.961 5.46057 161.237 7.0824 161.237 9.08302C161.237 11.0836 162.961 12.7055 165.089 12.7055Z" fill="#BCBEC0"/>
<path d="M115.064 19.4118C115.064 14.1655 110.442 9.91846 104.732 9.91846C99.0222 9.91846 94.4001 14.1655 94.4001 19.4118C94.4001 24.6581 99.0222 28.9051 104.732 28.9051C106.816 28.9051 108.765 28.3221 110.351 27.3645V28.6136H115.064V19.62C115.064 19.5367 115.064 19.495 115.064 19.4118ZM104.732 24.5748C101.605 24.5748 99.1128 22.2431 99.1128 19.4118C99.1128 16.5804 101.605 14.2071 104.732 14.2071C107.859 14.2071 110.351 16.5388 110.351 19.3701C110.351 22.2015 107.813 24.5748 104.732 24.5748Z" fill="#BCBEC0"/>
<path d="M2.74805 17.5168L6.23438 26.218L9.7207 17.5168H11.5444V28.1809H10.1382V24.0281L10.27 19.5457L6.76904 28.1809H5.69238L2.19873 19.5676L2.33789 24.0281V28.1809H0.931641V17.5168H2.74805ZM18.7075 28.1809C18.6294 28.0247 18.5659 27.7463 18.5171 27.3459C17.8872 28.0002 17.1353 28.3274 16.2612 28.3274C15.48 28.3274 14.8379 28.1077 14.335 27.6682C13.8369 27.2239 13.5879 26.6624 13.5879 25.9836C13.5879 25.1584 13.9004 24.5188 14.5254 24.0647C15.1553 23.6057 16.0391 23.3762 17.1768 23.3762H18.4951V22.7537C18.4951 22.28 18.3535 21.9041 18.0703 21.6257C17.7871 21.3425 17.3696 21.2009 16.8179 21.2009C16.3345 21.2009 15.9292 21.323 15.6021 21.5671C15.2749 21.8113 15.1113 22.1067 15.1113 22.4534H13.749C13.749 22.0579 13.8882 21.677 14.1665 21.3108C14.4497 20.9397 14.8306 20.6467 15.3091 20.4319C15.7925 20.217 16.3223 20.1096 16.8984 20.1096C17.8115 20.1096 18.5269 20.3391 19.0444 20.7981C19.562 21.2522 19.8306 21.8796 19.8501 22.6804V26.3279C19.8501 27.0554 19.9429 27.634 20.1284 28.0637V28.1809H18.7075ZM16.459 27.1482C16.8838 27.1482 17.2866 27.0383 17.6675 26.8186C18.0483 26.5989 18.3242 26.3132 18.4951 25.9617V24.3357H17.4331C15.7729 24.3357 14.9429 24.8215 14.9429 25.7932C14.9429 26.218 15.0845 26.55 15.3677 26.7893C15.6509 27.0286 16.0146 27.1482 16.459 27.1482ZM21.6445 24.1526C21.6445 22.9368 21.9326 21.9602 22.5088 21.2229C23.085 20.4807 23.8394 20.1096 24.772 20.1096C25.6997 20.1096 26.4346 20.427 26.9766 21.0618V16.9309H28.3315V28.1809H27.0864L27.0205 27.3313C26.4785 27.9954 25.7241 28.3274 24.7573 28.3274C23.8394 28.3274 23.0898 27.9514 22.5088 27.1995C21.9326 26.4475 21.6445 25.4661 21.6445 24.2551V24.1526ZM22.9995 24.3064C22.9995 25.2048 23.1851 25.908 23.5562 26.4158C23.9272 26.9236 24.4399 27.1775 25.0942 27.1775C25.9536 27.1775 26.5811 26.7917 26.9766 26.0203V22.3801C26.5713 21.6331 25.9487 21.2595 25.1089 21.2595C24.4448 21.2595 23.9272 21.5159 23.5562 22.0286C23.1851 22.5413 22.9995 23.3005 22.9995 24.3064ZM33.7295 28.3274C32.6553 28.3274 31.7812 27.9758 31.1074 27.2727C30.4336 26.5647 30.0967 25.6199 30.0967 24.4382V24.1892C30.0967 23.4031 30.2456 22.7024 30.5435 22.0872C30.8462 21.467 31.2661 20.9836 31.8032 20.637C32.3452 20.2854 32.9312 20.1096 33.561 20.1096C34.5913 20.1096 35.3921 20.449 35.9634 21.1277C36.5347 21.8064 36.8203 22.7781 36.8203 24.0427V24.6067H31.4517C31.4712 25.3879 31.6982 26.0203 32.1328 26.5037C32.5723 26.9822 33.1289 27.2214 33.8027 27.2214C34.2812 27.2214 34.6865 27.1238 35.0186 26.9285C35.3506 26.7332 35.6411 26.4744 35.8901 26.1521L36.7178 26.7966C36.0537 27.8171 35.0576 28.3274 33.7295 28.3274ZM33.561 21.2229C33.0142 21.2229 32.5552 21.4231 32.1841 21.8235C31.813 22.219 31.5835 22.7756 31.4956 23.4934H35.4653V23.3909C35.4263 22.7024 35.2407 22.1702 34.9087 21.7942C34.5767 21.4133 34.1274 21.2229 33.561 21.2229ZM48.8247 24.3064C48.8247 25.5173 48.5464 26.4915 47.9897 27.2288C47.4331 27.9612 46.686 28.3274 45.7485 28.3274C44.7476 28.3274 43.9736 27.9734 43.4268 27.2654L43.3608 28.1809H42.1157V16.9309H43.4707V21.1277C44.0176 20.449 44.772 20.1096 45.7339 20.1096C46.6958 20.1096 47.4502 20.4734 47.9971 21.2009C48.5488 21.9285 48.8247 22.9246 48.8247 24.1892V24.3064ZM47.4697 24.1526C47.4697 23.2297 47.2915 22.5168 46.9351 22.0139C46.5786 21.511 46.0659 21.2595 45.397 21.2595C44.5034 21.2595 43.8613 21.6746 43.4707 22.5046V25.9324C43.8857 26.7625 44.5327 27.1775 45.4116 27.1775C46.061 27.1775 46.5664 26.926 46.9277 26.4231C47.2891 25.9202 47.4697 25.1633 47.4697 24.1526ZM53.0435 26.196L54.8892 20.2561H56.3394L53.1533 29.4041C52.6602 30.7224 51.8765 31.3816 50.8022 31.3816L50.5459 31.3596L50.0405 31.2644V30.1658L50.4067 30.1951C50.8657 30.1951 51.2222 30.1023 51.4761 29.9167C51.7349 29.7312 51.9473 29.3918 52.1133 28.8987L52.4136 28.093L49.5864 20.2561H51.0659L53.0435 26.196Z" fill="#BCBEC0"/>
</g>
</svg>
