<svg width="17" height="20" viewBox="0 0 17 20" fill="none" xmlns="http://www.w3.org/2000/svg">
<path d="M10.4769 9.70593C10.0107 9.30637 9.66169 9.03942 9.625 9.01148C9.62274 9.00976 9.62068 9.00819 9.61842 9.00647L9.36546 8.81367C8.04773 7.80931 6.16531 8.06337 5.16096 9.38112L2.34745 13.0726C1.34311 14.3903 1.59716 16.2728 2.9149 17.2771L3.44037 17.6776C4.7531 18.6782 6.62749 18.4303 7.63506 17.123L9.80126 14.3123" stroke="#00A7E1" stroke-width="1.5"/>
<path d="M7.8418 5.824L8.30887 5.2112L9.71564 3.36547C10.72 2.04773 12.6024 1.79368 13.9202 2.79803L14.4329 3.18878C15.7506 4.19313 16.0047 6.07556 15.0003 7.3933L12.1868 11.0848C11.1824 12.4025 9.29997 12.6565 7.98223 11.6522L7.7273 11.4579C7.72636 11.4572 7.72552 11.4565 7.72458 11.4558C7.70853 11.4434 7.54189 11.3122 7.09765 10.8878" stroke="#00A7E1" stroke-width="1.5"/>
</svg>
