<svg width="227" height="362" viewBox="0 0 227 362" fill="none" xmlns="http://www.w3.org/2000/svg" style="">
<path d="M108.801 357.663H40.4399C34.8863 357.663 4.11914 349.339 4.11914 316.046C4.11914 282.752 33.4922 272.663 40.4399 272.663H108.801H171.163C178.11 272.663 207.483 282.752 207.483 316.046C207.483 349.339 176.716 357.663 171.163 357.663H108.801ZM108.801 357.663C108.801 357.663 116.801 332.052 116.801 315.163C116.801 299.715 110.108 276.968 108.966 273.201" stroke="#0B0A0A" stroke-width="7" class="dTCEugNI_0"></path>
<path d="M150.968 78.9081L121.848 46.1579C119.483 43.4973 110.365 25.2121 126.315 11.03C142.265 -3.15201 159.61 6.6222 162.57 9.95069L191.69 42.7009L218.253 72.5766C221.213 75.9051 228.891 94.2747 212.941 108.457C196.991 122.639 179.898 111.445 177.532 108.784L150.968 78.9081ZM150.968 78.9081C150.968 78.9081 166.646 71.8312 174.737 64.6371C181.856 58.3068 189.573 46.1321 191.323 43.2999" stroke="#0B0A0A" stroke-width="7" class="dTCEugNI_1"></path>
<path d="M153.071 259.222L159.278 252.878L190.56 221.553C200.646 212.384 209.215 188.262 190.56 167.741C171.905 147.221 144.917 154.385 135.01 165.737L103.81 197.41L47.0615 255.276M104.241 197.644C107.449 199.396 127.732 210.683 138.183 221.553C147.687 231.439 157.755 250.023 159.121 252.583" stroke="#0B0A0A" stroke-width="7" class="dTCEugNI_2"></path>
<style data-made-with="vivus-instant">.dTCEugNI_0{stroke-dasharray:593 595;stroke-dashoffset:594;animation:dTCEugNI_draw 750ms ease 0ms forwards;}.dTCEugNI_1{stroke-dasharray:380 382;stroke-dashoffset:381;animation:dTCEugNI_draw 750ms ease 0ms forwards;}.dTCEugNI_2{stroke-dasharray:380 382;stroke-dashoffset:381;animation:dTCEugNI_draw 750ms ease 0ms forwards;}@keyframes dTCEugNI_draw{100%{stroke-dashoffset:0;}}@keyframes dTCEugNI_fade{0%{stroke-opacity:1;}91.91919191919192%{stroke-opacity:1;}100%{stroke-opacity:0;}}</style></svg>
