<svg width="233" height="368" viewBox="0 0 233 368" fill="none" xmlns="http://www.w3.org/2000/svg">
<path fill-rule="evenodd" clip-rule="evenodd" d="M171.452 16.9851C160.844 5.3885 142.843 4.58991 131.25 15.2016C119.662 25.8083 118.864 43.7992 129.467 55.3904L150.039 77.8804C150.171 77.8109 150.308 77.7387 150.449 77.6639C152.169 76.7513 154.559 75.4476 157.229 73.8866C162.626 70.7308 168.951 66.6487 173.267 62.6983C177.597 58.7344 182.619 52.4225 186.646 46.9439C188.637 44.2347 190.347 41.7828 191.558 40.0089C191.701 39.7996 191.836 39.5998 191.965 39.4102L171.452 16.9851ZM198.98 36.708L176.617 12.2604C163.399 -2.1894 140.969 -3.18448 126.523 10.0381C112.085 23.2545 111.09 45.672 124.302 60.115L146.681 84.5799L146.682 84.5816L171.113 111.255C184.334 125.689 206.752 126.676 221.191 113.46C235.636 100.237 236.624 77.8071 223.397 63.366L198.982 36.7097L198.98 36.708ZM196.82 44.7131C195.625 46.4493 194.066 48.6681 192.286 51.0896C188.23 56.6088 182.867 63.4009 177.993 67.8617C173.105 72.3361 166.247 76.7227 160.762 79.9296C158.563 81.2154 156.549 82.3316 154.919 83.2109L176.275 106.527C186.885 118.111 204.877 118.903 216.465 108.296C228.057 97.6849 228.85 79.6836 218.235 68.094L196.82 44.7131ZM135.61 166.655C152.257 150.008 179.247 150.008 195.894 166.655C212.541 183.302 212.541 210.292 195.894 226.939L164.808 258.025L158.229 264.822L153.2 259.954L158.04 254.953C157.849 254.605 157.637 254.221 157.405 253.805C156.234 251.703 154.562 248.788 152.559 245.544C148.514 238.991 143.264 231.332 138.162 226.231C133.046 221.114 124.912 215.399 117.875 210.879C114.391 208.641 111.238 206.735 108.957 205.389C108.465 205.099 108.015 204.835 107.61 204.6L51.8065 261.772L46.7972 256.882L104.509 197.756L135.61 166.655ZM112.696 199.468C115.018 200.84 118.175 202.752 121.658 204.989C128.739 209.538 137.424 215.593 143.112 221.281C148.816 226.985 154.414 235.223 158.515 241.866C160.391 244.905 161.985 247.661 163.167 249.767L190.944 221.989C204.858 208.076 204.858 185.518 190.944 171.605C177.031 157.691 154.473 157.691 140.56 171.605L112.696 199.468ZM50.1957 275.268C26.7236 275.268 7.69568 294.296 7.69568 317.768C7.69568 341.24 26.7236 360.268 50.1957 360.268H108.628C108.789 359.721 108.972 359.091 109.173 358.387C109.95 355.66 110.987 351.838 112.024 347.464C114.114 338.645 116.134 327.857 116.134 319.302C116.134 310.724 114.107 299.157 112.01 289.544C110.97 284.779 109.93 280.565 109.15 277.544C108.927 276.683 108.726 275.92 108.553 275.268H50.1957ZM115.791 275.268C115.836 275.439 115.881 275.615 115.927 275.794C116.724 278.879 117.786 283.18 118.849 288.052C120.957 297.716 123.134 309.915 123.134 319.302C123.134 328.71 120.95 340.155 118.835 349.079C117.774 353.556 116.713 357.467 115.915 360.268H169.196C192.668 360.268 211.696 341.24 211.696 317.768C211.696 294.296 192.668 275.268 169.196 275.268H115.791ZM0.695679 317.768C0.695679 290.43 22.8576 268.268 50.1957 268.268H169.196C196.534 268.268 218.696 290.43 218.696 317.768C218.696 345.106 196.534 367.268 169.196 367.268H50.1957C22.8576 367.268 0.695679 345.106 0.695679 317.768Z" fill="#0B0A0A"/>
</svg>
