<svg width="122" height="36" viewBox="0 0 122 36" fill="none" xmlns="http://www.w3.org/2000/svg">
<path d="M23.5982 20.398C24.0403 20.5458 24.4071 20.7662 24.6999 21.0218C24.9566 21.2803 25.1716 21.5696 25.3148 21.8888C25.4269 22.2284 25.4973 22.556 25.4973 22.8761C25.4973 23.6444 25.343 24.2995 24.9912 24.7582C24.6168 25.2463 24.1681 25.6219 23.6023 25.9244C23.0379 26.2263 22.3921 26.4182 21.6585 26.5344C20.9228 26.6509 20.1844 26.6901 19.4411 26.6901C18.8872 26.6901 18.3405 26.6901 17.7161 26.6509C17.2045 26.6189 16.7818 26.5873 16.4394 26.5367L17.9619 20.1324H21.8919C22.5775 20.1324 23.1459 20.2469 23.5982 20.398Z" fill="#BCBEC0" stroke="white" stroke-width="0.458113"/>
<path d="M24.7003 9.9027C25.1422 9.97655 25.5112 10.1236 25.8468 10.31C26.1402 10.4947 26.423 10.7464 26.5961 11.0218C26.7745 11.3455 26.8808 11.7024 26.8808 12.1343C26.8808 12.9737 26.5583 13.667 25.8501 14.3024C25.1595 14.922 24.0802 15.2348 22.6035 15.2348H19.1784L20.4565 9.92545C20.7587 9.89262 21.1704 9.85944 21.67 9.82605C22.2542 9.787 22.8396 9.78692 23.3545 9.78692C23.815 9.78692 24.2371 9.82529 24.7003 9.9027Z" fill="#BCBEC0" stroke="white" stroke-width="0.458113"/>
<path d="M13.7885 31.6758L13.7915 31.9048H13.7916L13.792 31.9048L13.7937 31.9048L13.8004 31.9047L13.8268 31.9044L13.9284 31.9031L14.3026 31.8986C14.6188 31.8949 15.056 31.89 15.54 31.885C16.5086 31.8751 17.6637 31.8652 18.4135 31.8652C20.8415 31.8652 22.9203 31.5859 24.6465 31.0626L24.648 31.0622C26.3263 30.5413 27.7391 29.8559 28.8361 28.9596L28.8361 28.9597L28.8394 28.9569C29.8878 28.0674 30.7032 27.049 31.1945 25.8995C31.681 24.7611 31.9245 23.581 31.9245 22.3213C31.9245 21.2088 31.6361 20.2175 31.1022 19.3115C30.6271 18.5054 29.9017 17.8686 28.9424 17.3679C29.7155 16.9826 30.3766 16.5648 30.897 16.1126C31.5106 15.5793 31.9604 15.0048 32.3268 14.3925L32.327 14.3927L32.3325 14.3825C32.6557 13.7747 32.9027 13.1587 33.0269 12.536L33.0283 12.5287L33.0293 12.5214C33.0555 12.3245 33.0817 12.1313 33.1081 11.9378C33.1609 11.5495 33.2139 11.1598 33.2667 10.7358L33.2685 10.7217V10.7075C33.2685 9.84613 33.1048 9.05874 32.7328 8.31093C32.3994 7.56099 31.8601 6.89793 31.1208 6.3619C30.4207 5.8257 29.4844 5.3794 28.359 5.05696C27.2265 4.73251 25.8998 4.57245 24.3824 4.57245H15.6464H15.4658L15.4237 4.74803L8.98036 31.5827L8.91443 31.8573L9.19671 31.8651C9.91121 31.885 11.06 31.8949 12.0283 31.8999C12.5128 31.9024 12.9528 31.9036 13.2717 31.9042L13.6497 31.9048L13.7526 31.9048L13.7794 31.9049H13.7862H13.7879H13.7884H13.7885L13.7885 31.6758ZM13.7885 31.6758L13.7914 31.9048L13.7885 31.9049V31.6758ZM43.0356 0.908255L35.8573 35.4501H1.22265L8.36187 0.908255H43.0356Z" fill="#BCBEC0" stroke="white" stroke-width="0.458113"/>
<path d="M73.7152 10.342H73.8959L73.938 10.1663L75.1239 5.21157L75.1914 4.92919H74.9011H53.5947H53.4153L53.3723 5.10325L52.1469 10.058L52.0766 10.342H52.3692H59.787L54.7555 31.3052L54.6877 31.5878H54.9782H60.9076H61.0882L61.1304 31.4122L66.1875 10.342H73.7152ZM47.6937 0.908255H82.3281L75.1889 35.4501H40.5544L47.6937 0.908255Z" fill="#BCBEC0" stroke="white" stroke-width="0.458113"/>
<path d="M104.994 23.0705C104.196 23.4875 103.337 23.7789 102.357 23.9169L105.16 12.1433C106.475 12.2868 107.41 12.7729 108.004 13.5425C108.638 14.3658 108.984 15.4626 108.984 16.8512C108.984 17.6123 108.832 18.3774 108.524 19.1877C108.217 19.9968 107.797 20.723 107.188 21.3717C106.572 22.028 105.84 22.607 104.994 23.0705Z" fill="#BCBEC0" stroke="white" stroke-width="0.458113"/>
<path d="M92.7849 16.774L92.7851 16.7741L92.7882 16.7649C93.0529 15.9684 93.5082 15.2433 94.1213 14.5901C94.7375 13.9336 95.4683 13.3552 96.3532 12.8922C97.1512 12.4747 98.0111 12.1829 98.9917 12.0448L96.19 23.8141C94.8306 23.6395 93.8964 23.1859 93.3056 22.4192C92.6712 21.596 92.3255 20.4991 92.3255 19.1105C92.3255 18.3495 92.4771 17.5843 92.7849 16.774Z" fill="#BCBEC0" stroke="white" stroke-width="0.458113"/>
<path d="M90.9292 27.7993C92.0399 28.337 93.3623 28.7263 94.8602 28.9365L94.1659 31.9413L94.101 32.222H94.389H100.16H100.345L100.384 32.0419L101.057 28.9678C103.338 28.9108 105.364 28.5106 107.13 27.724C108.932 26.9607 110.459 25.9543 111.707 24.7028C112.952 23.454 113.879 22.0818 114.523 20.547C115.168 19.0122 115.45 17.4758 115.45 16.019C115.45 15.0041 115.288 13.9862 114.922 13.0071C114.557 11.99 114.028 11.0912 113.255 10.2748C112.519 9.45595 111.545 8.7665 110.38 8.20236C109.269 7.66467 107.947 7.2753 106.449 7.06512L107.104 4.21868L107.168 3.93825H106.88H101.149H100.966L100.925 4.11594L100.254 7.03377C97.9725 7.09068 95.9457 7.49081 94.1792 8.27772C92.3777 9.04069 90.8511 10.0467 89.6032 11.2976C88.3562 12.508 87.4299 13.881 86.7858 15.415L86.7858 15.415L86.7839 15.4198C86.1823 16.948 85.8588 18.4431 85.8588 19.9827C85.8588 20.959 86.021 21.9774 86.3872 22.9565C86.7512 23.9299 87.2792 24.8687 88.054 25.6873C88.787 26.5032 89.7597 27.2332 90.9292 27.7993ZM121.66 0.908255L114.521 35.4501H79.8862L87.0254 0.908255H121.66Z" fill="#BCBEC0" stroke="white" stroke-width="0.458113"/>
</svg>
