<svg width="143" height="43" viewBox="0 0 143 43" fill="none" xmlns="http://www.w3.org/2000/svg">
<path d="M28.2284 24.5887C27.8572 24.2608 27.3933 23.9798 26.8367 23.7924C26.28 23.6051 25.5841 23.4645 24.7491 23.4645H19.9246L18.0226 31.5209C18.4865 31.6146 19.0896 31.6614 19.8318 31.7082C20.574 31.7551 21.2235 31.7551 21.8729 31.7551C22.7543 31.7551 23.6358 31.7082 24.5172 31.5677C25.3986 31.4272 26.1872 31.193 26.883 30.8183C27.5789 30.4436 28.1356 29.9752 28.5995 29.3663C29.0634 28.7574 29.2489 27.9143 29.2489 26.9775C29.2489 26.5559 29.1561 26.1344 29.017 25.7128C28.8314 25.2913 28.5531 24.9166 28.2284 24.5887Z" fill="#97989A"/>
<path d="M29.5266 11.8906C29.1091 11.6564 28.6452 11.4691 28.0885 11.3754C27.5318 11.2817 27.0215 11.2349 26.4648 11.2349C25.8618 11.2349 25.1659 11.2349 24.4701 11.2817C23.7742 11.3285 23.2175 11.3754 22.8464 11.4222L21.2228 18.2139H25.5834C27.3462 18.2139 28.6915 17.8392 29.573 17.0429C30.4544 16.2467 30.8719 15.3567 30.8719 14.2794C30.8719 13.7173 30.7327 13.2489 30.5007 12.8274C30.2688 12.4527 29.8977 12.1248 29.5266 11.8906Z" fill="#97989A"/>
<path d="M8.65292 0.747559L0.163574 42.1066H41.3578L49.8935 0.747559H8.65292ZM37.5538 14.7056C37.4146 15.4082 37.1363 16.1108 36.7652 16.8134C36.3477 17.516 35.8374 18.1717 35.1415 18.7807C34.4457 19.3896 33.5179 19.9516 32.4045 20.4669C33.7498 21.0758 34.724 21.872 35.3271 22.9025C35.9301 23.933 36.2549 25.0571 36.2549 26.3218C36.2549 27.7738 35.9765 29.1321 35.4199 30.4436C34.8632 31.7551 33.9354 32.9261 32.7292 33.9566C31.4767 34.987 29.8531 35.7833 27.9047 36.3922C25.9099 37.0011 23.4977 37.329 20.6679 37.329C18.9051 37.329 15.2403 37.3758 15.2403 37.3758C15.2403 37.3758 11.5291 37.3758 9.85905 37.329L17.4206 5.61884H27.6728C29.4356 5.61884 30.9664 5.80619 32.2654 6.18091C33.5643 6.55562 34.6312 7.07085 35.4199 7.67976C36.2549 8.28867 36.8579 9.0381 37.2291 9.88121C37.6466 10.7243 37.8321 11.6143 37.8321 12.5979C37.7394 13.3473 37.6466 14.0031 37.5538 14.7056Z" fill="#97989A"/>
<path d="M54.8095 0.747559L46.3202 42.1066H87.5144L96.0037 0.747559H54.8095ZM85.566 11.8953H76.52L70.5357 37.0011H63.5772L69.5615 11.8953H60.5155L61.9535 6.04039H86.9577L85.566 11.8953Z" fill="#00A7E1"/>
<path d="M122.261 14.0047L118.828 28.5249C120.173 28.3843 121.333 28.0096 122.4 27.4476C123.421 26.8855 124.302 26.1829 125.044 25.3866C125.787 24.5904 126.297 23.7004 126.668 22.7168C127.039 21.7332 127.225 20.7964 127.225 19.8596C127.225 18.1734 126.807 16.8151 126.019 15.7846C125.23 14.7541 123.977 14.1452 122.261 14.0047Z" fill="#F32735"/>
<path d="M109.316 16.9997C108.574 17.796 108.017 18.686 107.692 19.6696C107.321 20.6532 107.136 21.59 107.136 22.5268C107.136 24.213 107.553 25.5713 108.342 26.6018C109.131 27.6322 110.383 28.1943 112.146 28.3817L115.579 13.8615C114.233 14.002 113.074 14.3767 112.007 14.9388C110.94 15.5009 110.058 16.2035 109.316 16.9997Z" fill="#F32735"/>
<path d="M100.969 0.747559L92.4799 42.1066H133.674L142.163 0.747559H100.969ZM133.21 24.1203C132.468 25.9002 131.401 27.4928 129.963 28.9448C128.525 30.3968 126.762 31.5678 124.674 32.4577C122.587 33.3945 120.175 33.8629 117.438 33.9097L116.603 37.7505H109.83L110.711 33.9097C108.855 33.6755 107.232 33.2071 105.887 32.5514C104.541 31.8956 103.428 31.0525 102.593 30.1157C101.711 29.179 101.108 28.1017 100.691 26.9775C100.273 25.8534 100.088 24.6824 100.088 23.5583C100.088 21.7784 100.459 20.0453 101.155 18.2654C101.897 16.4855 102.964 14.893 104.402 13.4878C105.84 12.0358 107.603 10.8648 109.69 9.97488C111.778 9.0381 114.19 8.56971 116.927 8.52287L117.762 4.86941H124.489L123.654 8.52287C125.509 8.75706 127.133 9.22546 128.478 9.88121C129.824 10.537 130.937 11.3332 131.772 12.27C132.653 13.2068 133.257 14.2373 133.674 15.4082C134.092 16.5324 134.277 17.7034 134.277 18.8743C134.277 20.5605 133.952 22.3404 133.21 24.1203Z" fill="#F32735"/>
</svg>
