<svg width="186" height="30" viewBox="0 0 186 30" fill="none" xmlns="http://www.w3.org/2000/svg">
<path d="M17.464 18.544C17.6987 18.544 17.9067 18.6347 18.088 18.816L19.784 20.656C18.8453 21.8187 17.688 22.7093 16.312 23.328C14.9467 23.9467 13.304 24.256 11.384 24.256C9.66667 24.256 8.12 23.9627 6.744 23.376C5.37867 22.7893 4.21067 21.9733 3.24 20.928C2.26933 19.8827 1.52267 18.6347 1 17.184C0.488 15.7333 0.232 14.1493 0.232 12.432C0.232 10.6933 0.509333 9.104 1.064 7.664C1.61867 6.21333 2.39733 4.96533 3.4 3.92C4.41333 2.87467 5.61867 2.064 7.016 1.488C8.41333 0.901333 9.96 0.608 11.656 0.608C13.3413 0.608 14.8347 0.885333 16.136 1.44C17.448 1.99467 18.5627 2.72 19.48 3.616L18.04 5.616C17.9547 5.744 17.8427 5.856 17.704 5.952C17.576 6.048 17.3947 6.096 17.16 6.096C17 6.096 16.8347 6.05333 16.664 5.968C16.4933 5.872 16.3067 5.76 16.104 5.632C15.9013 5.49333 15.6667 5.344 15.4 5.184C15.1333 5.024 14.824 4.88 14.472 4.752C14.12 4.61333 13.7093 4.50133 13.24 4.416C12.7813 4.32 12.248 4.272 11.64 4.272C10.6053 4.272 9.656 4.45867 8.792 4.832C7.93867 5.19467 7.20267 5.728 6.584 6.432C5.96533 7.12533 5.48533 7.97867 5.144 8.992C4.80267 9.99467 4.632 11.1413 4.632 12.432C4.632 13.7333 4.81333 14.8907 5.176 15.904C5.54933 16.9173 6.05067 17.7707 6.68 18.464C7.30933 19.1573 8.05067 19.6907 8.904 20.064C9.75733 20.4267 10.6747 20.608 11.656 20.608C12.2427 20.608 12.7707 20.576 13.24 20.512C13.72 20.448 14.1573 20.3467 14.552 20.208C14.9573 20.0693 15.336 19.8933 15.688 19.68C16.0507 19.456 16.408 19.184 16.76 18.864C16.8667 18.768 16.9787 18.6933 17.096 18.64C17.2133 18.576 17.336 18.544 17.464 18.544ZM38.8923 4.4H31.9163V24H27.6123V4.4H20.6363V0.863998H38.8923V4.4ZM67.0078 0.863998V24H63.2158V9.056C63.2158 8.45867 63.2478 7.81333 63.3118 7.12L56.3198 20.256C55.9891 20.8853 55.4824 21.2 54.7998 21.2H54.1918C53.5091 21.2 53.0024 20.8853 52.6718 20.256L45.5998 7.072C45.6318 7.424 45.6584 7.77067 45.6798 8.112C45.7011 8.45333 45.7118 8.768 45.7118 9.056V24H41.9198V0.863998H45.1678C45.3598 0.863998 45.5251 0.869332 45.6638 0.879999C45.8024 0.890665 45.9251 0.917332 46.0318 0.959999C46.1491 1.00267 46.2504 1.072 46.3358 1.168C46.4318 1.264 46.5224 1.392 46.6078 1.552L53.5358 14.4C53.7171 14.7413 53.8824 15.0933 54.0318 15.456C54.1918 15.8187 54.3464 16.192 54.4958 16.576C54.6451 16.1813 54.7998 15.8027 54.9598 15.44C55.1198 15.0667 55.2904 14.7093 55.4718 14.368L62.3038 1.552C62.3891 1.392 62.4798 1.264 62.5758 1.168C62.6718 1.072 62.7731 1.00267 62.8798 0.959999C62.9971 0.917332 63.1251 0.890665 63.2638 0.879999C63.4024 0.869332 63.5678 0.863998 63.7598 0.863998H67.0078ZM71.4178 12.688H79.7058V15.984H71.4178V12.688ZM97.7873 24H93.8353V10.512H87.4353V24H83.4833V7.584H97.7873V24ZM108.966 7.328C110.182 7.328 111.286 7.52533 112.278 7.92C113.281 8.31467 114.134 8.87467 114.838 9.6C115.553 10.3253 116.102 11.2107 116.486 12.256C116.87 13.3013 117.062 14.4693 117.062 15.76C117.062 17.0613 116.87 18.2347 116.486 19.28C116.102 20.3253 115.553 21.216 114.838 21.952C114.134 22.688 113.281 23.2533 112.278 23.648C111.286 24.0427 110.182 24.24 108.966 24.24C107.739 24.24 106.625 24.0427 105.622 23.648C104.619 23.2533 103.761 22.688 103.046 21.952C102.342 21.216 101.793 20.3253 101.398 19.28C101.014 18.2347 100.822 17.0613 100.822 15.76C100.822 14.4693 101.014 13.3013 101.398 12.256C101.793 11.2107 102.342 10.3253 103.046 9.6C103.761 8.87467 104.619 8.31467 105.622 7.92C106.625 7.52533 107.739 7.328 108.966 7.328ZM108.966 21.2C110.331 21.2 111.339 20.7413 111.99 19.824C112.651 18.9067 112.982 17.5627 112.982 15.792C112.982 14.0213 112.651 12.672 111.99 11.744C111.339 10.816 110.331 10.352 108.966 10.352C107.579 10.352 106.55 10.8213 105.878 11.76C105.217 12.688 104.886 14.032 104.886 15.792C104.886 17.552 105.217 18.896 105.878 19.824C106.55 20.7413 107.579 21.2 108.966 21.2ZM124.029 19.744C124.477 20.288 124.962 20.672 125.485 20.896C126.018 21.12 126.594 21.232 127.213 21.232C127.81 21.232 128.349 21.12 128.829 20.896C129.309 20.672 129.714 20.3307 130.045 19.872C130.386 19.4133 130.648 18.8373 130.829 18.144C131.01 17.44 131.101 16.6133 131.101 15.664C131.101 14.704 131.021 13.8933 130.861 13.232C130.712 12.56 130.493 12.016 130.205 11.6C129.917 11.184 129.565 10.88 129.149 10.688C128.744 10.496 128.28 10.4 127.757 10.4C126.936 10.4 126.237 10.576 125.661 10.928C125.085 11.2693 124.541 11.7547 124.029 12.384V19.744ZM123.821 9.824C124.493 9.06667 125.256 8.45333 126.109 7.984C126.962 7.51467 127.965 7.28 129.117 7.28C130.013 7.28 130.829 7.46667 131.565 7.84C132.312 8.21333 132.952 8.75733 133.485 9.472C134.029 10.176 134.445 11.0507 134.733 12.096C135.032 13.1307 135.181 14.32 135.181 15.664C135.181 16.8907 135.016 18.0267 134.685 19.072C134.354 20.1173 133.88 21.024 133.261 21.792C132.653 22.56 131.912 23.1627 131.037 23.6C130.173 24.0267 129.202 24.24 128.125 24.24C127.208 24.24 126.424 24.1013 125.773 23.824C125.122 23.536 124.541 23.1413 124.029 22.64V29.36H120.077V7.584H122.493C123.005 7.584 123.341 7.824 123.501 8.304L123.821 9.824ZM152.001 10.512H146.145V24H142.193V10.512H136.353V7.584H152.001V10.512ZM162.905 16.992C161.764 17.0453 160.804 17.1467 160.025 17.296C159.247 17.4347 158.623 17.616 158.153 17.84C157.684 18.064 157.348 18.3253 157.145 18.624C156.943 18.9227 156.841 19.248 156.841 19.6C156.841 20.2933 157.044 20.7893 157.449 21.088C157.865 21.3867 158.404 21.536 159.065 21.536C159.876 21.536 160.575 21.392 161.161 21.104C161.759 20.8053 162.34 20.3573 162.905 19.76V16.992ZM153.849 9.872C155.737 8.144 158.009 7.28 160.665 7.28C161.625 7.28 162.484 7.44 163.241 7.76C163.999 8.06933 164.639 8.50667 165.161 9.072C165.684 9.62667 166.079 10.2933 166.345 11.072C166.623 11.8507 166.761 12.704 166.761 13.632V24H164.969C164.596 24 164.308 23.9467 164.105 23.84C163.903 23.7227 163.743 23.4933 163.625 23.152L163.273 21.968C162.857 22.3413 162.452 22.672 162.057 22.96C161.663 23.2373 161.252 23.472 160.825 23.664C160.399 23.856 159.94 24 159.449 24.096C158.969 24.2027 158.436 24.256 157.849 24.256C157.156 24.256 156.516 24.1653 155.929 23.984C155.343 23.792 154.836 23.5093 154.409 23.136C153.983 22.7627 153.652 22.2987 153.417 21.744C153.183 21.1893 153.065 20.544 153.065 19.808C153.065 19.392 153.135 18.9813 153.273 18.576C153.412 18.16 153.636 17.7653 153.945 17.392C154.265 17.0187 154.676 16.6667 155.177 16.336C155.679 16.0053 156.292 15.7173 157.017 15.472C157.753 15.2267 158.607 15.0293 159.577 14.88C160.548 14.72 161.657 14.624 162.905 14.592V13.632C162.905 12.5333 162.671 11.7227 162.201 11.2C161.732 10.6667 161.055 10.4 160.169 10.4C159.529 10.4 158.996 10.4747 158.569 10.624C158.153 10.7733 157.785 10.944 157.465 11.136C157.145 11.3173 156.852 11.4827 156.585 11.632C156.329 11.7813 156.041 11.856 155.721 11.856C155.444 11.856 155.209 11.7867 155.017 11.648C154.825 11.4987 154.671 11.328 154.553 11.136L153.849 9.872ZM185.715 24H181.763V10.608H177.731C177.603 12.624 177.406 14.3627 177.139 15.824C176.873 17.2747 176.553 18.5067 176.179 19.52C175.817 20.5333 175.406 21.3493 174.947 21.968C174.499 22.576 174.019 23.0507 173.507 23.392C172.995 23.7333 172.467 23.9573 171.923 24.064C171.379 24.1813 170.83 24.24 170.275 24.24C169.689 24.24 169.257 24.1867 168.979 24.08C168.713 23.984 168.579 23.8453 168.579 23.664V21.2H169.523C169.875 21.2 170.227 21.1467 170.579 21.04C170.931 20.9333 171.273 20.7147 171.603 20.384C171.934 20.0533 172.249 19.584 172.547 18.976C172.846 18.3573 173.118 17.5467 173.363 16.544C173.619 15.5307 173.843 14.2933 174.035 12.832C174.227 11.3707 174.377 9.62133 174.483 7.584H185.715V24Z" fill="#0B0A0A"/>
</svg>
