<svg width="114" height="114" viewBox="0 0 114 114" fill="none" xmlns="http://www.w3.org/2000/svg">
<g clip-path="url(#clip0)">
<mask id="mask0" mask-type="alpha" maskUnits="userSpaceOnUse" x="0" y="0" width="114" height="114">
<path d="M0 13.3594C0 5.9812 5.9812 0 13.3594 0H100.641C108.019 0 114 5.9812 114 13.3594V100.641C114 108.019 108.019 114 100.641 114H13.3594C5.9812 114 0 108.019 0 100.641V13.3594Z" fill="white"/>
</mask>
<g mask="url(#mask0)">
<rect x="-0.720245" y="-0.0278168" width="115.427" height="114" rx="3" fill="#C4C4C4"/>
<rect x="-0.720245" y="-0.0278168" width="115.427" height="114" rx="3" fill="url(#paint0_linear)"/>
<ellipse cx="56.942" cy="40.6536" rx="18.3456" ry="18.3456" fill="white"/>
<path d="M56.9906 91.6919C70.5088 91.6919 82.3198 84.3829 88.6874 73.5011C88.891 73.1532 88.9076 72.7232 88.7322 72.3602C83.7515 62.0532 74.8993 59.1603 70.1925 59.0063C69.9337 58.9979 69.6818 59.0804 69.4684 59.2271C65.0942 62.2347 61.8612 63.3495 55.9503 63.3495C51.3971 63.3495 46.8623 60.7895 44.8322 59.2775C44.5963 59.1017 44.3079 59.0009 44.0139 59.0122C33.4667 59.4173 27.3365 67.9009 25.2284 72.3802C25.0613 72.7352 25.0863 73.1459 25.2843 73.4847C31.6496 84.3755 43.4657 91.6919 56.9906 91.6919Z" fill="white"/>
</g>
<rect y="-13.9865" width="527.266" height="525.986" fill="white"/>
<path d="M96.1849 99.3432H202.737L231.373 11.6423H13.7737L-36.339 165.798H74.708L96.1849 99.3432Z" fill="#F32735"/>
<path d="M115.342 117.411H200.725L223.672 47.134H49.3032L9.14639 170.663H98.1318L115.342 117.411Z" fill="#00A7E1"/>
<path fill-rule="evenodd" clip-rule="evenodd" d="M100.921 97.5951H186.35L196.356 66.9504H63.6985L36.4255 150.847H83.7105L100.921 97.5951ZM98.1318 170.663H9.14639L49.3032 47.134H223.672L200.725 117.411H115.342L98.1318 170.663Z" fill="white"/>
</g>
<defs>
<linearGradient id="paint0_linear" x1="50.5853" y1="-4.27848" x2="50.5853" y2="107.626" gradientUnits="userSpaceOnUse">
<stop stop-color="#25AAEC"/>
<stop offset="1" stop-color="#1D90E5"/>
</linearGradient>
<clipPath id="clip0">
<rect width="114" height="114" fill="white"/>
</clipPath>
</defs>
</svg>
