<svg width="120" height="120" viewBox="0 0 120 120" fill="none" xmlns="http://www.w3.org/2000/svg">
<g clip-path="url(#clip0)">
<mask id="mask0" mask-type="alpha" maskUnits="userSpaceOnUse" x="0" y="0" width="120" height="120">
<path d="M0 14.0625C0 6.296 6.296 0 14.0625 0H105.938C113.704 0 120 6.296 120 14.0625V105.938C120 113.704 113.704 120 105.938 120H14.0625C6.296 120 0 113.704 0 105.938V14.0625Z" fill="white"/>
</mask>
<g mask="url(#mask0)">
<rect x="-0.758179" y="-0.0292816" width="121.502" height="120" rx="3" fill="#C4C4C4"/>
<rect x="-0.758179" y="-0.0292816" width="121.502" height="120" rx="3" fill="url(#paint0_linear)"/>
<ellipse cx="59.9389" cy="42.7933" rx="19.3111" ry="19.3111" fill="white"/>
<path d="M59.9902 96.5178C74.2319 96.5178 86.6735 88.811 93.3722 77.3404C93.5755 76.9923 93.592 76.5622 93.417 76.199C88.1693 65.3092 78.8191 62.2654 73.8654 62.1112C73.6066 62.1032 73.3551 62.1857 73.1418 62.3325C68.5287 65.5073 65.1248 66.6837 58.8951 66.6837C54.0874 66.6837 49.2992 63.9723 47.1721 62.3826C46.9364 62.2065 46.6484 62.1062 46.3544 62.1172C35.2144 62.5325 28.7501 71.5082 26.5425 76.2189C26.3759 76.5742 26.4008 76.9851 26.5985 77.324C33.2949 88.8037 45.7417 96.5178 59.9902 96.5178Z" fill="white"/>
</g>
<rect y="-13.9865" width="527.266" height="525.986" fill="white"/>
<path d="M101.247 104.572H213.407L243.55 12.255H14.4986L-38.2516 174.524H78.64L101.247 104.572Z" fill="#F32735"/>
<path d="M121.412 123.591H211.29L235.444 49.6147H51.8981L9.62778 179.646H103.297L121.412 123.591Z" fill="#00A7E1"/>
<path fill-rule="evenodd" clip-rule="evenodd" d="M106.232 102.732H196.157L206.69 70.4741H67.0511L38.3426 158.786H88.1163L106.232 102.732ZM103.297 179.646H9.62778L51.8981 49.6147H235.444L211.29 123.591H121.412L103.297 179.646Z" fill="white"/>
</g>
<defs>
<linearGradient id="paint0_linear" x1="53.2477" y1="-4.50366" x2="53.2477" y2="113.29" gradientUnits="userSpaceOnUse">
<stop stop-color="#25AAEC"/>
<stop offset="1" stop-color="#1D90E5"/>
</linearGradient>
<clipPath id="clip0">
<rect width="120" height="120" fill="white"/>
</clipPath>
</defs>
</svg>
