<svg width="144" height="144" viewBox="0 0 144 144" fill="none" xmlns="http://www.w3.org/2000/svg">
<g clip-path="url(#clip0)">
<mask id="mask0" mask-type="alpha" maskUnits="userSpaceOnUse" x="0" y="0" width="144" height="144">
<path d="M0 16.875C0 7.55519 7.55519 0 16.875 0H127.125C136.445 0 144 7.55519 144 16.875V127.125C144 136.445 136.445 144 127.125 144H16.875C7.55519 144 0 136.445 0 127.125V16.875Z" fill="white"/>
</mask>
<g mask="url(#mask0)">
<rect x="-0.90979" y="-0.035141" width="145.802" height="144" rx="3" fill="#C4C4C4"/>
<rect x="-0.90979" y="-0.035141" width="145.802" height="144" rx="3" fill="url(#paint0_linear)"/>
<ellipse cx="71.9267" cy="51.352" rx="23.1734" ry="23.1734" fill="white"/>
<path d="M71.9882 115.821C89.1241 115.821 104.088 106.524 112.111 92.6976C112.314 92.349 112.33 91.9183 112.156 91.5545C105.841 78.3329 94.498 74.6858 88.5577 74.5312C88.2989 74.5245 88.0485 74.607 87.8354 74.7541C82.2664 78.5976 78.1791 80.0204 70.6741 80.0204C64.8486 80.0204 59.0469 76.7029 56.5326 74.8037C56.2979 74.6264 56.0106 74.5275 55.7166 74.5374C42.205 74.993 34.4049 85.9385 31.7996 91.5729C31.6349 91.9291 31.6588 92.3417 31.8556 92.6812C39.8762 106.516 54.8455 115.821 71.9882 115.821Z" fill="white"/>
</g>
<rect y="-13.9865" width="527.266" height="525.986" fill="white"/>
<path d="M121.497 125.486H256.089L292.26 14.706H17.3983L-45.9019 209.429H94.368L121.497 125.486Z" fill="#F32735"/>
<path d="M145.695 148.309H253.548L282.533 59.5376H62.2778L11.5533 215.575H123.956L145.695 148.309Z" fill="#00A7E1"/>
<path fill-rule="evenodd" clip-rule="evenodd" d="M127.479 123.278H235.389L248.028 84.5689H80.4613L46.0111 190.544H105.74L127.479 123.278ZM123.956 215.575H11.5533L62.2778 59.5376H282.533L253.548 148.309H145.695L123.956 215.575Z" fill="white"/>
</g>
<defs>
<linearGradient id="paint0_linear" x1="63.8972" y1="-5.4044" x2="63.8972" y2="135.948" gradientUnits="userSpaceOnUse">
<stop stop-color="#25AAEC"/>
<stop offset="1" stop-color="#1D90E5"/>
</linearGradient>
<clipPath id="clip0">
<rect width="144" height="144" fill="white"/>
</clipPath>
</defs>
</svg>
