<svg width="16" height="16" viewBox="0 0 16 16" fill="none" xmlns="http://www.w3.org/2000/svg">
<g clip-path="url(#clip0)">
<mask id="mask0" mask-type="alpha" maskUnits="userSpaceOnUse" x="0" y="0" width="16" height="16">
<path d="M0 1.875C0 0.839466 0.839466 0 1.875 0H14.125C15.1605 0 16 0.839466 16 1.875V14.125C16 15.1605 15.1605 16 14.125 16H1.875C0.839466 16 0 15.1605 0 14.125V1.875Z" fill="white"/>
</mask>
<g mask="url(#mask0)">
<rect x="-0.101074" y="-0.00390625" width="16.2002" height="16" rx="3" fill="#C4C4C4"/>
<rect x="-0.101074" y="-0.00390625" width="16.2002" height="16" rx="3" fill="url(#paint0_linear)"/>
<ellipse cx="7.99188" cy="5.70577" rx="2.57483" ry="2.57482" fill="white"/>
<path d="M7.9987 12.869C9.69844 12.869 11.2059 12.0457 12.144 10.7761C12.3835 10.4519 12.4053 10.0121 12.1798 9.67792C11.5884 8.8012 10.7812 8.43286 10.1908 8.3207C9.93642 8.27238 9.68538 8.3658 9.46223 8.4971C8.97934 8.78124 8.54803 8.89116 7.85269 8.89116C7.39968 8.89116 6.94797 8.71061 6.62186 8.52989C6.36454 8.38729 6.07837 8.27209 5.78893 8.32477C4.83748 8.49797 4.18346 9.14501 3.80822 9.6954C3.58715 10.0196 3.61014 10.4443 3.84218 10.7608C4.77944 12.0391 6.29215 12.869 7.9987 12.869Z" fill="white"/>
</g>
<rect y="-13.9865" width="527.266" height="525.986" fill="white"/>
<path d="M13.4996 13.9429H28.4542L32.4733 1.634H1.93313L-5.10022 23.2699H10.4853L13.4996 13.9429Z" fill="#F32735"/>
<path d="M16.1883 16.4788H28.1719L31.3925 6.6153H6.91974L1.28369 23.9528H13.7729L16.1883 16.4788Z" fill="#00A7E1"/>
<path fill-rule="evenodd" clip-rule="evenodd" d="M14.1643 13.6975H26.1543L27.5587 9.39654H8.94013L5.11233 21.1715H11.7488L14.1643 13.6975ZM13.7729 23.9528H1.28369L6.91974 6.6153H31.3925L28.1719 16.4788H16.1883L13.7729 23.9528Z" fill="white"/>
</g>
<defs>
<linearGradient id="paint0_linear" x1="7.09969" y1="-0.60049" x2="7.09969" y2="15.1053" gradientUnits="userSpaceOnUse">
<stop stop-color="#25AAEC"/>
<stop offset="1" stop-color="#1D90E5"/>
</linearGradient>
<clipPath id="clip0">
<rect width="16" height="16" fill="white"/>
</clipPath>
</defs>
</svg>
