<svg width="160" height="160" viewBox="0 0 160 160" fill="none" xmlns="http://www.w3.org/2000/svg">
<g clip-path="url(#clip0)">
<mask id="mask0" mask-type="alpha" maskUnits="userSpaceOnUse" x="0" y="0" width="160" height="160">
<path d="M0 18.75C0 8.39466 8.39466 0 18.75 0H141.25C151.605 0 160 8.39466 160 18.75V141.25C160 151.605 151.605 160 141.25 160H18.75C8.39466 160 0 151.605 0 141.25V18.75Z" fill="white"/>
</mask>
<g mask="url(#mask0)">
<rect x="-1.01089" y="-0.0390434" width="162.002" height="160" rx="3" fill="#C4C4C4"/>
<rect x="-1.01089" y="-0.0390434" width="162.002" height="160" rx="3" fill="url(#paint0_linear)"/>
<ellipse cx="79.9185" cy="57.0577" rx="25.7482" ry="25.7482" fill="white"/>
<path d="M79.9869 128.69C99.0522 128.69 115.698 118.332 124.604 102.936C124.806 102.587 124.821 102.156 124.648 101.792C117.622 87.0151 104.95 82.9662 98.3528 82.8113C98.0939 82.8052 97.8442 82.8878 97.6312 83.035C91.4249 87.3245 86.8819 88.9115 78.5267 88.9115C72.0227 88.9115 65.5454 85.1897 62.7738 83.0847C62.5395 82.9068 62.2521 82.8082 61.9581 82.8176C46.8639 83.2997 38.1731 95.5613 35.3042 101.81C35.1404 102.167 35.1641 102.579 35.3605 102.919C44.2637 118.324 60.9147 128.69 79.9869 128.69Z" fill="white"/>
</g>
<rect y="-13.9865" width="527.266" height="525.986" fill="white"/>
<path d="M134.996 139.429H284.543L324.733 16.34H19.3315L-51.0021 232.698H104.853L134.996 139.429Z" fill="#F32735"/>
<path d="M161.883 164.788H281.72L313.926 66.1529H69.1975L12.837 239.528H137.729L161.883 164.788Z" fill="#00A7E1"/>
<path fill-rule="evenodd" clip-rule="evenodd" d="M141.643 136.976H261.543L275.587 93.9654H89.4014L51.1235 211.715H117.488L141.643 136.976ZM137.729 239.528H12.837L69.1975 66.1529H313.926L281.72 164.788H161.883L137.729 239.528Z" fill="white"/>
</g>
<defs>
<linearGradient id="paint0_linear" x1="70.9969" y1="-6.00488" x2="70.9969" y2="151.053" gradientUnits="userSpaceOnUse">
<stop stop-color="#25AAEC"/>
<stop offset="1" stop-color="#1D90E5"/>
</linearGradient>
<clipPath id="clip0">
<rect width="160" height="160" fill="white"/>
</clipPath>
</defs>
</svg>
