<svg width="180" height="180" viewBox="0 0 180 180" fill="none" xmlns="http://www.w3.org/2000/svg">
<g clip-path="url(#clip0)">
<mask id="mask0" mask-type="alpha" maskUnits="userSpaceOnUse" x="0" y="0" width="180" height="180">
<path d="M0 21.0938C0 9.44399 9.44399 0 21.0938 0H158.906C170.556 0 180 9.44399 180 21.0938V158.906C180 170.556 170.556 180 158.906 180H21.0938C9.44399 180 0 170.556 0 158.906V21.0938Z" fill="white"/>
</mask>
<g mask="url(#mask0)">
<rect x="-1.13727" y="-0.0439224" width="182.253" height="180" rx="3" fill="#C4C4C4"/>
<rect x="-1.13727" y="-0.0439224" width="182.253" height="180" rx="3" fill="url(#paint0_linear)"/>
<ellipse cx="89.9084" cy="64.1899" rx="28.9667" ry="28.9667" fill="white"/>
<path d="M89.9852 144.777C111.462 144.777 130.211 133.092 140.219 115.733C140.421 115.384 140.436 114.953 140.264 114.588C132.348 97.8678 118.016 93.3168 110.597 93.1616C110.338 93.1562 110.089 93.2388 109.876 93.3861C102.873 98.2331 97.7605 100.025 88.3426 100.025C80.9903 100.025 73.6685 95.7981 70.5758 93.4363C70.342 93.2577 70.0541 93.1592 69.76 93.168C52.6848 93.683 42.8805 107.595 39.6838 114.609C39.5211 114.966 39.5457 115.377 39.7416 115.717C49.7481 133.085 68.5013 144.777 89.9852 144.777Z" fill="white"/>
</g>
<rect y="-13.9865" width="527.266" height="525.986" fill="white"/>
<path d="M151.871 156.858H320.111L365.325 18.3825H21.7479L-57.3774 261.786H117.96L151.871 156.858Z" fill="#F32735"/>
<path d="M182.119 185.387H316.934L353.166 74.422H77.8472L14.4417 269.469H154.945L182.119 185.387Z" fill="#00A7E1"/>
<path fill-rule="evenodd" clip-rule="evenodd" d="M159.348 154.097H294.236L310.035 105.711H100.577L57.5139 238.18H132.174L159.348 154.097ZM154.945 269.469H14.4417L77.8472 74.422H353.166L316.934 185.387H182.119L154.945 269.469Z" fill="white"/>
</g>
<defs>
<linearGradient id="paint0_linear" x1="79.8715" y1="-6.75549" x2="79.8715" y2="169.935" gradientUnits="userSpaceOnUse">
<stop stop-color="#25AAEC"/>
<stop offset="1" stop-color="#1D90E5"/>
</linearGradient>
<clipPath id="clip0">
<rect width="180" height="180" fill="white"/>
</clipPath>
</defs>
</svg>
