<svg width="192" height="192" viewBox="0 0 192 192" fill="none" xmlns="http://www.w3.org/2000/svg">
<g clip-path="url(#clip0)">
<mask id="mask0" mask-type="alpha" maskUnits="userSpaceOnUse" x="0" y="0" width="192" height="192">
<path d="M0 22.5C0 10.0736 10.0736 0 22.5 0H169.5C181.926 0 192 10.0736 192 22.5V169.5C192 181.926 181.926 192 169.5 192H22.5C10.0736 192 0 181.926 0 169.5V22.5Z" fill="white"/>
</mask>
<g mask="url(#mask0)">
<rect x="-1.21307" y="-0.0468521" width="194.403" height="192" rx="3" fill="#C4C4C4"/>
<rect x="-1.21307" y="-0.0468521" width="194.403" height="192" rx="3" fill="url(#paint0_linear)"/>
<ellipse cx="95.9022" cy="68.4693" rx="30.8978" ry="30.8978" fill="white"/>
<path d="M95.9843 154.429C118.909 154.429 138.918 141.948 149.589 123.412C149.79 123.062 149.805 122.631 149.633 122.266C141.184 104.379 125.855 99.5272 117.943 99.3719C117.685 99.3668 117.436 99.4493 117.223 99.5968C109.742 104.778 104.288 106.694 94.2321 106.694C86.3709 106.694 78.5423 102.163 75.2573 99.6473C75.0237 99.4684 74.7353 99.3697 74.4412 99.3783C56.1773 99.9128 45.705 114.815 42.3118 122.289C42.1495 122.646 42.1747 123.055 42.3704 123.395C53.0388 141.941 73.0532 154.429 95.9843 154.429Z" fill="white"/>
</g>
<rect y="-13.9865" width="527.266" height="525.986" fill="white"/>
<path d="M161.996 167.315H341.451L389.68 19.608H23.1977L-61.2026 279.238H125.824L161.996 167.315Z" fill="#F32735"/>
<path d="M194.26 197.746H338.063L376.711 79.3835H83.037L15.4045 287.433H165.275L194.26 197.746Z" fill="#00A7E1"/>
<path fill-rule="evenodd" clip-rule="evenodd" d="M169.972 164.371H313.852L330.704 112.759H107.282L61.3482 254.058H140.986L169.972 164.371ZM165.275 287.433H15.4045L83.037 79.3835H376.711L338.063 197.746H194.26L165.275 287.433Z" fill="white"/>
</g>
<defs>
<linearGradient id="paint0_linear" x1="85.1963" y1="-7.20586" x2="85.1963" y2="181.264" gradientUnits="userSpaceOnUse">
<stop stop-color="#25AAEC"/>
<stop offset="1" stop-color="#1D90E5"/>
</linearGradient>
<clipPath id="clip0">
<rect width="192" height="192" fill="white"/>
</clipPath>
</defs>
</svg>
