<svg width="32" height="32" viewBox="0 0 32 32" fill="none" xmlns="http://www.w3.org/2000/svg">
<g clip-path="url(#clip0)">
<mask id="mask0" mask-type="alpha" maskUnits="userSpaceOnUse" x="0" y="0" width="32" height="32">
<path d="M0 3.75C0 1.67893 1.67893 0 3.75 0H28.25C30.3211 0 32 1.67893 32 3.75V28.25C32 30.3211 30.3211 32 28.25 32H3.75C1.67893 32 0 30.3211 0 28.25V3.75Z" fill="white"/>
</mask>
<g mask="url(#mask0)">
<rect x="-0.202179" y="-0.0078125" width="32.4004" height="32" rx="3" fill="#C4C4C4"/>
<rect x="-0.202179" y="-0.0078125" width="32.4004" height="32" rx="3" fill="url(#paint0_linear)"/>
<ellipse cx="15.9837" cy="11.4115" rx="5.14964" ry="5.14964" fill="white"/>
<path d="M15.9974 25.7381C19.6269 25.7381 22.8179 23.8611 24.6528 21.0248C24.8718 20.6863 24.8912 20.2552 24.6952 19.9029C23.3716 17.5246 21.2863 16.7193 19.9888 16.5832C19.7313 16.5562 19.4792 16.6431 19.2623 16.7844C18.1499 17.5091 17.2558 17.7823 15.7053 17.7823C14.6007 17.7823 13.5 17.2456 12.8536 16.8259C12.6069 16.6656 12.321 16.5585 12.0282 16.5869C9.54752 16.8277 7.99124 18.67 7.28762 19.9195C7.09507 20.2614 7.11903 20.6789 7.33159 21.0088C9.16483 23.854 12.3611 25.7381 15.9974 25.7381Z" fill="white"/>
</g>
<rect y="-13.9865" width="527.266" height="525.986" fill="white"/>
<path d="M26.9992 27.8858H56.9085L64.9466 3.26801H3.86627L-10.2004 46.5397H20.9706L26.9992 27.8858Z" fill="#F32735"/>
<path d="M32.3767 32.9576H56.3439L62.7851 13.2306H13.8395L2.56741 47.9055H27.5458L32.3767 32.9576Z" fill="#00A7E1"/>
<path fill-rule="evenodd" clip-rule="evenodd" d="M28.3286 27.3951H52.3087L55.1174 18.7931H17.8803L10.2247 42.343H23.4977L28.3286 27.3951ZM27.5458 47.9055H2.56741L13.8395 13.2306H62.7851L56.3439 32.9576H32.3767L27.5458 47.9055Z" fill="white"/>
</g>
<defs>
<linearGradient id="paint0_linear" x1="14.1994" y1="-1.20098" x2="14.1994" y2="30.2107" gradientUnits="userSpaceOnUse">
<stop stop-color="#25AAEC"/>
<stop offset="1" stop-color="#1D90E5"/>
</linearGradient>
<clipPath id="clip0">
<rect width="32" height="32" fill="white"/>
</clipPath>
</defs>
</svg>
