<svg width="512" height="512" viewBox="0 0 512 512" fill="none" xmlns="http://www.w3.org/2000/svg">
<g clip-path="url(#clip0)">
<mask id="mask0" mask-type="alpha" maskUnits="userSpaceOnUse" x="0" y="0" width="512" height="512">
<path d="M0 60C0 26.8629 26.8629 0 60 0H452C485.137 0 512 26.8629 512 60V452C512 485.137 485.137 512 452 512H60C26.8629 512 0 485.137 0 452V60Z" fill="white"/>
</mask>
<g mask="url(#mask0)">
<rect x="-3.23483" y="-0.124939" width="518.408" height="512" rx="3" fill="#C4C4C4"/>
<rect x="-3.23483" y="-0.124939" width="518.408" height="512" rx="3" fill="url(#paint0_linear)"/>
<circle cx="255.739" cy="182.585" r="82.3942" fill="white"/>
<path d="M255.958 411.809C317.472 411.809 371.114 378.112 399.434 328.169C399.633 327.818 399.647 327.386 399.478 327.02C376.814 278.016 334.894 265.139 313.859 264.983C313.6 264.981 313.354 265.063 313.141 265.211C292.909 279.315 278.345 284.517 251.286 284.517C229.825 284.517 208.456 271.855 200.083 265.258C199.852 265.076 199.569 264.984 199.275 264.99C149.307 266.035 121.026 307.368 112.407 327.055C112.25 327.414 112.279 327.811 112.473 328.152C140.79 378.104 194.438 411.809 255.958 411.809Z" fill="white"/>
</g>
<rect y="-13.9865" width="527.266" height="525.986" fill="white"/>
<path d="M431.988 446.173H910.537L1039.15 52.288H61.8607L-163.207 744.635H335.531L431.988 446.173Z" fill="#F32735"/>
<path d="M518.027 527.322H901.503L1004.56 211.689H221.432L41.0786 766.488H440.732L518.027 527.322Z" fill="#00A7E1"/>
<path fill-rule="evenodd" clip-rule="evenodd" d="M453.257 438.322H836.938L881.878 300.689H286.085L163.595 677.488H375.963L453.257 438.322ZM440.732 766.488H41.0786L221.432 211.689H1004.56L901.503 527.322H518.027L440.732 766.488Z" fill="white"/>
</g>
<defs>
<linearGradient id="paint0_linear" x1="227.19" y1="-19.2156" x2="227.19" y2="483.371" gradientUnits="userSpaceOnUse">
<stop stop-color="#25AAEC"/>
<stop offset="1" stop-color="#1D90E5"/>
</linearGradient>
<clipPath id="clip0">
<rect width="512" height="512" fill="white"/>
</clipPath>
</defs>
</svg>
