<svg width="57" height="57" viewBox="0 0 57 57" fill="none" xmlns="http://www.w3.org/2000/svg">
<g clip-path="url(#clip0)">
<mask id="mask0" mask-type="alpha" maskUnits="userSpaceOnUse" x="0" y="0" width="57" height="57">
<path d="M0 6.67969C0 2.9906 2.9906 0 6.67969 0H50.3203C54.0094 0 57 2.9906 57 6.67969V50.3203C57 54.0094 54.0094 57 50.3203 57H6.67969C2.9906 57 0 54.0094 0 50.3203V6.67969Z" fill="white"/>
</mask>
<g mask="url(#mask0)">
<rect x="-0.360138" y="-0.013916" width="57.7133" height="57" rx="3" fill="#C4C4C4"/>
<rect x="-0.360138" y="-0.013916" width="57.7133" height="57" rx="3" fill="url(#paint0_linear)"/>
<ellipse cx="28.471" cy="20.3268" rx="9.1728" ry="9.17279" fill="white"/>
<path d="M28.4953 45.846C35.1397 45.846 40.9593 42.3144 44.1794 37.0259C44.389 36.6816 44.4072 36.2528 44.2238 35.8938C41.7805 31.1102 37.6445 29.6593 35.2943 29.5126C35.0359 29.4965 34.7843 29.5809 34.5697 29.7256C32.4647 31.1451 30.856 31.6747 27.9752 31.6747C25.8272 31.6747 23.6875 30.5354 22.6 29.7717C22.3593 29.6026 22.0742 29.4994 21.7805 29.5173C16.8549 29.8176 13.9007 33.6504 12.7511 35.9107C12.5731 36.2605 12.5977 36.6742 12.8014 37.0096C16.0194 42.3071 21.8441 45.846 28.4953 45.846Z" fill="white"/>
</g>
<rect y="-13.9865" width="527.266" height="525.986" fill="white"/>
<path d="M48.0924 49.6716H101.368L115.686 5.82114H6.88681L-18.1695 82.8988H37.354L48.0924 49.6716Z" fill="#F32735"/>
<path d="M57.671 58.7057H100.363L111.836 23.567H24.6516L4.57321 85.3317H49.0659L57.671 58.7057Z" fill="#00A7E1"/>
<path fill-rule="evenodd" clip-rule="evenodd" d="M50.4603 48.7975H93.1748L98.1778 33.4752H31.8493L18.2127 75.4235H41.8553L50.4603 48.7975ZM49.0659 85.3317H4.57321L24.6516 23.567H111.836L100.363 58.7057H57.671L49.0659 85.3317Z" fill="white"/>
</g>
<defs>
<linearGradient id="paint0_linear" x1="25.2926" y1="-2.13925" x2="25.2926" y2="53.8128" gradientUnits="userSpaceOnUse">
<stop stop-color="#25AAEC"/>
<stop offset="1" stop-color="#1D90E5"/>
</linearGradient>
<clipPath id="clip0">
<rect width="57" height="57" fill="white"/>
</clipPath>
</defs>
</svg>
