<svg width="60" height="60" viewBox="0 0 60 60" fill="none" xmlns="http://www.w3.org/2000/svg">
<g clip-path="url(#clip0)">
<mask id="mask0" mask-type="alpha" maskUnits="userSpaceOnUse" x="0" y="0" width="60" height="60">
<path d="M0 7.03125C0 3.148 3.148 0 7.03125 0H52.9688C56.852 0 60 3.148 60 7.03125V52.9688C60 56.852 56.852 60 52.9688 60H7.03125C3.148 60 0 56.852 0 52.9688V7.03125Z" fill="white"/>
</mask>
<g mask="url(#mask0)">
<rect x="-0.379089" y="-0.0146484" width="60.7509" height="60" rx="3" fill="#C4C4C4"/>
<rect x="-0.379089" y="-0.0146484" width="60.7509" height="60" rx="3" fill="url(#paint0_linear)"/>
<ellipse cx="29.9694" cy="21.3966" rx="9.65558" ry="9.65557" fill="white"/>
<path d="M29.9951 48.2589C37.0013 48.2589 43.1362 44.5286 46.5221 38.9457C46.7312 38.601 46.7495 38.1728 46.5669 37.8133C43.9897 32.7394 39.6059 31.2119 37.1308 31.0646C36.8723 31.0493 36.621 31.1334 36.4065 31.2784C34.1822 32.7814 32.4879 33.3418 29.4475 33.3418C27.1736 33.3418 24.9083 32.1287 23.7699 31.3247C23.5295 31.1551 23.2443 31.0522 22.9506 31.0695C17.7302 31.3759 14.6087 35.451 13.4074 37.8299C13.2305 38.1802 13.255 38.5937 13.4582 38.9295C16.842 44.5213 22.9821 48.2589 29.9951 48.2589Z" fill="white"/>
</g>
<rect y="-13.9865" width="527.266" height="525.986" fill="white"/>
<path d="M50.6236 52.2859H106.704L121.775 6.1275H7.2493L-19.1258 87.2619H39.32L50.6236 52.2859Z" fill="#F32735"/>
<path d="M60.7063 61.7955H105.645L117.722 24.8073H25.9491L4.8139 89.8228H51.6483L60.7063 61.7955Z" fill="#00A7E1"/>
<path fill-rule="evenodd" clip-rule="evenodd" d="M53.1161 51.3658H98.0787L103.345 35.237H33.5255L19.1713 79.3932H44.0582L53.1161 51.3658ZM51.6483 89.8228H4.8139L25.9491 24.8073H117.722L105.645 61.7955H60.7063L51.6483 89.8228Z" fill="white"/>
</g>
<defs>
<linearGradient id="paint0_linear" x1="26.6238" y1="-2.25184" x2="26.6238" y2="56.645" gradientUnits="userSpaceOnUse">
<stop stop-color="#25AAEC"/>
<stop offset="1" stop-color="#1D90E5"/>
</linearGradient>
<clipPath id="clip0">
<rect width="60" height="60" fill="white"/>
</clipPath>
</defs>
</svg>
