<svg width="72" height="72" viewBox="0 0 72 72" fill="none" xmlns="http://www.w3.org/2000/svg">
<g clip-path="url(#clip0)">
<mask id="mask0" mask-type="alpha" maskUnits="userSpaceOnUse" x="0" y="0" width="72" height="72">
<path d="M0 8.4375C0 3.7776 3.7776 0 8.4375 0H63.5625C68.2224 0 72 3.7776 72 8.4375V63.5625C72 68.2224 68.2224 72 63.5625 72H8.4375C3.7776 72 0 68.2224 0 63.5625V8.4375Z" fill="white"/>
</mask>
<g mask="url(#mask0)">
<rect x="-0.454895" y="-0.0175781" width="72.901" height="72" rx="3" fill="#C4C4C4"/>
<rect x="-0.454895" y="-0.0175781" width="72.901" height="72" rx="3" fill="url(#paint0_linear)"/>
<ellipse cx="35.9633" cy="25.676" rx="11.5867" ry="11.5867" fill="white"/>
<path d="M35.9941 57.9107C44.4474 57.9107 51.8438 53.3853 55.8928 46.6251C56.0999 46.2792 56.1179 45.8512 55.9379 45.4905C52.8258 39.255 47.4507 37.4227 44.4775 37.2732C44.2189 37.2602 43.968 37.3437 43.7538 37.4893C41.052 39.3266 39.0156 40.0102 35.337 40.0102C32.5586 40.0102 29.791 38.5009 28.4505 37.5375C28.2116 37.3658 27.9248 37.2632 27.631 37.2784C21.231 37.6083 17.4407 42.6549 16.0341 45.5055C15.8605 45.8574 15.8843 46.2719 16.0857 46.6088C20.1325 53.3781 27.534 57.9107 35.9941 57.9107Z" fill="white"/>
</g>
<rect y="-13.9865" width="527.266" height="525.986" fill="white"/>
<path d="M60.7483 62.7431H128.044L146.13 7.353H8.69912L-22.951 104.714H47.184L60.7483 62.7431Z" fill="#F32735"/>
<path d="M72.8475 74.1546H126.774L141.266 29.7688H31.1389L5.77667 107.787H61.978L72.8475 74.1546Z" fill="#00A7E1"/>
<path fill-rule="evenodd" clip-rule="evenodd" d="M63.7393 61.639H117.694L124.014 42.2845H40.2306L23.0056 95.2718H52.8698L63.7393 61.639ZM61.978 107.787H5.77667L31.1389 29.7688H141.266L126.774 74.1546H72.8475L61.978 107.787Z" fill="white"/>
</g>
<defs>
<linearGradient id="paint0_linear" x1="31.9486" y1="-2.70221" x2="31.9486" y2="67.9741" gradientUnits="userSpaceOnUse">
<stop stop-color="#25AAEC"/>
<stop offset="1" stop-color="#1D90E5"/>
</linearGradient>
<clipPath id="clip0">
<rect width="72" height="72" fill="white"/>
</clipPath>
</defs>
</svg>
