<svg width="76" height="76" viewBox="0 0 76 76" fill="none" xmlns="http://www.w3.org/2000/svg">
<g clip-path="url(#clip0)">
<mask id="mask0" mask-type="alpha" maskUnits="userSpaceOnUse" x="0" y="0" width="76" height="76">
<path d="M0 8.90625C0 3.98746 3.98746 0 8.90625 0H67.0938C72.0125 0 76 3.98746 76 8.90625V67.0938C76 72.0125 72.0125 76 67.0938 76H8.90625C3.98746 76 0 72.0125 0 67.0938V8.90625Z" fill="white"/>
</mask>
<g mask="url(#mask0)">
<rect x="-0.480164" y="-0.0185547" width="76.9511" height="76" rx="3" fill="#C4C4C4"/>
<rect x="-0.480164" y="-0.0185547" width="76.9511" height="76" rx="3" fill="url(#paint0_linear)"/>
<ellipse cx="37.9613" cy="27.1024" rx="12.2304" ry="12.2304" fill="white"/>
<path d="M37.9938 61.1279C46.9295 61.1279 54.7463 56.3375 59.0162 49.1847C59.2229 48.8386 59.2407 48.4103 59.0613 48.0493C55.7711 41.4266 50.0655 39.4929 46.9266 39.3428C46.668 39.3305 46.417 39.4137 46.2031 39.5595C43.3419 41.5083 41.1915 42.233 37.3003 42.233C34.3528 42.233 31.417 40.6239 30.0101 39.6077C29.7716 39.4355 29.4851 39.3335 29.1912 39.3481C22.3972 39.6856 18.3839 45.0576 16.9097 48.0646C16.7369 48.417 16.7608 48.8313 16.9617 49.1684C21.2294 56.3302 29.0513 61.1279 37.9938 61.1279Z" fill="white"/>
</g>
<rect y="-13.9865" width="527.266" height="525.986" fill="white"/>
<path d="M64.1232 66.2288H135.158L154.248 7.76151H9.18243L-24.226 110.532H49.8053L64.1232 66.2288Z" fill="#F32735"/>
<path d="M76.8946 78.2743H133.817L149.115 31.4226H32.8688L6.0976 113.776H65.4212L76.8946 78.2743Z" fill="#00A7E1"/>
<path fill-rule="evenodd" clip-rule="evenodd" d="M67.2804 65.0634H124.233L130.904 44.6336H42.4657L24.2836 100.565H55.807L67.2804 65.0634ZM65.4212 113.776H6.0976L32.8688 31.4226H149.115L133.817 78.2743H76.8946L65.4212 113.776Z" fill="white"/>
</g>
<defs>
<linearGradient id="paint0_linear" x1="33.7235" y1="-2.85233" x2="33.7235" y2="71.7504" gradientUnits="userSpaceOnUse">
<stop stop-color="#25AAEC"/>
<stop offset="1" stop-color="#1D90E5"/>
</linearGradient>
<clipPath id="clip0">
<rect width="76" height="76" fill="white"/>
</clipPath>
</defs>
</svg>
