<svg width="96" height="96" viewBox="0 0 96 96" fill="none" xmlns="http://www.w3.org/2000/svg">
<g clip-path="url(#clip0)">
<mask id="mask0" mask-type="alpha" maskUnits="userSpaceOnUse" x="0" y="0" width="96" height="96">
<path d="M0 11.25C0 5.0368 5.0368 0 11.25 0H84.75C90.9632 0 96 5.0368 96 11.25V84.75C96 90.9632 90.9632 96 84.75 96H11.25C5.0368 96 0 90.9632 0 84.75V11.25Z" fill="white"/>
</mask>
<g mask="url(#mask0)">
<rect x="-0.606506" y="-0.0234375" width="97.2014" height="96" rx="3" fill="#C4C4C4"/>
<rect x="-0.606506" y="-0.0234375" width="97.2014" height="96" rx="3" fill="url(#paint0_linear)"/>
<ellipse cx="47.9511" cy="34.2346" rx="15.4489" ry="15.4489" fill="white"/>
<path d="M47.9921 77.2142C59.3396 77.2142 69.2587 71.0983 74.6329 61.983C74.8376 61.6357 74.8547 61.2063 74.6778 60.8441C70.4979 52.2842 63.1383 49.8447 59.173 49.6918C58.9143 49.6818 58.662 49.7643 58.4484 49.9107C54.7908 52.4168 52.0705 53.3469 47.1161 53.3469C43.3238 53.3469 39.5468 51.2382 37.8105 49.9601C37.5735 49.7857 37.2864 49.6848 36.9925 49.6973C28.2234 50.0712 23.0956 57.0795 21.2869 60.8632C21.1177 61.2173 21.1427 61.6284 21.3417 61.9666C26.7137 71.091 36.6378 77.2142 47.9921 77.2142Z" fill="white"/>
</g>
<rect y="-13.9865" width="527.266" height="525.986" fill="white"/>
<path d="M80.9978 83.6575H170.726L194.84 9.80402H11.5989L-30.6013 139.619H62.912L80.9978 83.6575Z" fill="#F32735"/>
<path d="M97.13 98.8728H169.032L188.355 39.6918H41.5185L7.70221 143.717H82.6373L97.13 98.8728Z" fill="#00A7E1"/>
<path fill-rule="evenodd" clip-rule="evenodd" d="M84.9857 82.1853H156.926L165.352 56.3793H53.6408L30.6741 127.029H70.4931L84.9857 82.1853ZM82.6373 143.717H7.70221L41.5185 39.6918H188.355L169.032 98.8728H97.13L82.6373 143.717Z" fill="white"/>
</g>
<defs>
<linearGradient id="paint0_linear" x1="42.5982" y1="-3.60294" x2="42.5982" y2="90.6321" gradientUnits="userSpaceOnUse">
<stop stop-color="#25AAEC"/>
<stop offset="1" stop-color="#1D90E5"/>
</linearGradient>
<clipPath id="clip0">
<rect width="96" height="96" fill="white"/>
</clipPath>
</defs>
</svg>
