<svg width="98" height="109" viewBox="0 0 98 109" fill="none" xmlns="http://www.w3.org/2000/svg">
<path d="M94.67 63.7619C96.4871 61.0347 97.3962 57.6319 97.3962 54.6834C97.3962 50.2384 95.4216 46.1087 92.0332 43.3082C92.7831 41.5163 93.162 39.6526 93.162 37.7468C93.162 31.8497 89.7205 26.3563 84.6038 23.7911C85.3801 17.3522 81.1845 11.4502 74.9668 9.94478C72.5333 4.31908 67.1167 0.486328 61.4059 0.486328C56.0899 0.486328 51.3221 3.587 48.7035 8.11118C46.0846 3.587 41.3168 0.486328 36.001 0.486328C30.2898 0.486328 24.8732 4.31908 22.4401 9.94499C16.1852 11.46 12.029 17.3914 12.8032 23.7911C7.68662 26.3561 4.24489 31.8497 4.24489 37.7468C4.24489 39.6526 4.62385 41.5163 5.37372 43.3082C1.98534 46.1089 0.0107422 50.2384 0.0107422 54.6834C0.0107422 57.6473 0.927435 61.0457 2.7369 63.7617C0.968718 66.2577 0.0107422 69.2159 0.0107422 72.2552C0.0107422 76.1963 1.60871 79.9507 4.43522 82.7385C2.98206 91.5227 9.98746 100.412 19.0644 100.412C19.13 100.412 19.1946 100.411 19.2579 100.409C22.2673 105.601 27.8535 108.881 33.8839 108.881C40.1691 108.881 45.7853 105.108 48.7035 99.6726C51.6216 105.108 57.2378 108.881 63.523 108.881C69.5535 108.881 75.1396 105.601 78.149 100.409C78.2125 100.411 78.2769 100.412 78.3425 100.412C86.3755 100.412 93.162 93.3349 93.162 84.9576C93.162 84.2444 93.0994 83.5108 92.9717 82.7385C95.7982 79.9507 97.3962 76.1965 97.3962 72.2552C97.3962 69.2159 96.4382 66.2577 94.67 63.7619ZM46.5864 32.5348C45.3399 31.8118 43.8941 31.3956 42.3522 31.3956C41.183 31.3956 40.2352 32.3434 40.2352 33.5127C40.2352 34.682 41.183 35.6298 42.3522 35.6298C44.687 35.6298 46.5864 37.5292 46.5864 39.8639V80.1241C43.4804 76.6011 38.9389 74.3722 33.8839 74.3722C32.7147 74.3722 31.7669 75.3201 31.7669 76.4893C31.7669 77.6586 32.7147 78.6064 33.8839 78.6064C40.8881 78.6064 46.5864 84.3047 46.5864 91.3088C46.5864 98.5384 40.7693 104.646 33.8839 104.646C28.9825 104.646 24.4704 101.748 22.3884 97.262C22.0046 96.4353 21.1353 95.9478 20.229 96.0498C20.0793 96.067 19.9305 96.0869 19.7817 96.1072C13.7565 96.9312 6.97126 90.1085 8.80803 82.476C8.99667 81.692 8.72356 80.8693 8.1039 80.3536C5.65148 78.313 4.24489 75.3611 4.24489 72.2552C4.24489 70.3348 4.78792 68.4554 5.7984 66.8075C8.33762 68.8886 11.4961 70.1381 14.8303 70.1381C15.9995 70.1381 16.9473 69.1903 16.9473 68.021C16.9473 66.8518 15.9995 65.9039 14.8303 65.9039C9.08474 65.9039 4.24489 60.6599 4.24489 54.6834C4.24489 51.0579 6.09289 47.7227 9.18868 45.7617C10.1424 45.1575 10.4543 43.9111 9.89727 42.929C8.95623 41.2694 8.47904 39.5258 8.47904 37.7468C8.47904 32.0329 13.137 26.5263 19.0644 26.5263C24.7035 26.5263 29.6498 31.7697 29.6498 37.7468C29.6498 38.9161 30.5976 39.8639 31.7669 39.8639C32.9361 39.8639 33.8839 38.9161 33.8839 37.7468C33.8839 29.3696 27.0974 22.2922 19.0644 22.2922C18.3556 22.2922 17.6506 22.3496 16.9526 22.4582C16.9516 22.4025 16.9473 22.3483 16.9473 22.2922C16.9473 17.5675 20.7828 13.8239 25.4156 13.8239C27.6771 13.8239 29.8043 14.7048 31.4053 16.3041C32.2324 17.1303 33.5727 17.1295 34.3992 16.3026C35.2255 15.4752 35.2249 14.1349 34.3978 13.3086C32.4663 11.3793 30.0235 10.1489 27.3761 9.74112C29.2431 6.96966 32.3478 4.72048 36.001 4.72048C41.6401 4.72048 46.5864 9.96362 46.5864 15.941V32.5348ZM82.5767 70.1381C85.9111 70.1381 89.0695 68.8884 91.6087 66.8081C92.619 68.4559 93.162 70.335 93.162 72.2552C93.162 75.3611 91.7555 78.313 89.3032 80.3536C88.6834 80.8693 88.4105 81.6922 88.5991 82.476C88.8235 83.4081 88.9279 84.1967 88.9279 84.9574C88.9279 91.5288 82.9842 96.8397 77.6255 96.1072C77.4766 96.0869 77.3276 96.0667 77.1779 96.0498C76.2703 95.9471 75.4021 96.4353 75.0187 97.262C72.9368 101.748 68.4242 104.646 63.523 104.646C56.6376 104.646 50.8205 98.5384 50.8205 91.3088C50.8205 84.3047 56.5189 78.6064 63.523 78.6064C64.692 78.6064 65.6401 77.6586 65.6401 76.4893C65.6401 75.3201 64.692 74.3722 63.523 74.3722C58.468 74.3722 53.9265 76.6011 50.8205 80.1241V39.8639C50.8205 37.5292 52.72 35.6298 55.0547 35.6298C56.2237 35.6298 57.1718 34.682 57.1718 33.5127C57.1718 32.3434 56.2237 31.3956 55.0547 31.3956C53.5128 31.3956 52.0671 31.8118 50.8205 32.5348V15.941C50.8205 9.96362 55.7669 4.72048 61.4059 4.72048C65.0591 4.72048 68.1636 6.96966 70.0307 9.74091C67.3835 10.1487 64.9408 11.3791 63.0092 13.3084C62.1818 14.1347 62.181 15.475 63.0073 16.3024C63.8336 17.1297 65.1743 17.1303 66.0012 16.3041C67.6028 14.7048 69.7298 13.8239 71.9913 13.8239C76.6474 13.8239 80.4596 17.5895 80.4596 22.2922C80.4596 22.3481 80.4554 22.4025 80.4543 22.4582C79.7563 22.3496 79.0513 22.2922 78.3425 22.2922C70.3095 22.2922 63.523 29.3696 63.523 37.7468C63.523 38.9161 64.471 39.8639 65.6401 39.8639C66.8091 39.8639 67.7571 38.9161 67.7571 37.7468C67.7571 31.7697 72.7035 26.5263 78.3425 26.5263C84.2665 26.5263 88.9279 32.0301 88.9279 37.7468C88.9279 39.5258 88.4507 41.2694 87.5097 42.929C86.9529 43.9111 87.2647 45.1575 88.2185 45.7617C91.314 47.7227 93.162 51.0579 93.162 54.6834C93.162 60.6813 88.3053 65.9039 82.5767 65.9039C81.4076 65.9039 80.4596 66.8518 80.4596 68.021C80.4596 69.1903 81.4076 70.1381 82.5767 70.1381Z" fill="#F5F5F5"/>
</svg>
