<svg width="108" height="110" viewBox="0 0 108 110" fill="none" xmlns="http://www.w3.org/2000/svg">
<path fill-rule="evenodd" clip-rule="evenodd" d="M97.4068 57.8148C96.4675 52.3441 94.33 47.3014 91.961 42.6068C91.9544 42.5943 91.9485 42.581 91.9419 42.5685C90.966 40.6358 89.9509 38.7623 88.965 36.9412C85.7492 31.0059 82.7125 25.3995 82.476 20.2985C81.9356 8.6951 86.9533 4.11453 87.1515 3.93883C87.8501 3.36845 88.0974 2.43418 87.7951 1.58485C87.4929 0.736349 86.6719 0.182617 85.7709 0.182617H21.8794C20.9776 0.182617 20.1499 0.729687 19.8477 1.57819C19.5446 2.42752 19.7844 3.35429 20.483 3.92468C20.697 4.1137 25.7147 8.6951 25.1752 20.2977C24.9378 25.3986 21.9011 31.0051 18.6861 36.9412C17.6994 38.7615 16.6843 40.6358 15.7084 42.5685C15.7018 42.581 15.6959 42.5935 15.6893 42.606C13.1704 47.5979 10.9139 52.9828 10.0803 58.8582C10.0703 58.9173 10.062 58.9773 10.057 59.0372C9.76059 61.2039 9.65567 63.4371 9.80722 65.7428C10.0654 69.6814 10.7373 74.1362 11.804 78.9849C12.0571 80.1348 13.1937 80.8609 14.3437 80.6086C15.4936 80.3555 16.2205 79.2189 15.9674 78.0689C14.9474 73.4293 14.3062 69.1884 14.0614 65.4638C14.0139 64.7444 13.9981 64.0325 14.0048 63.3272L44.3126 86.6156C46.3485 88.1802 48.9323 89.1519 51.6935 89.4109V105.061H24.5107C23.7288 103.135 22.1858 99.204 20.528 94.2621C20.1533 93.1463 18.9442 92.5451 17.8293 92.9198C16.7126 93.2936 16.1114 94.5019 16.4861 95.6185C18.9101 102.843 21.0367 107.824 21.1258 108.032C21.4622 108.816 22.2325 109.324 23.0851 109.324H84.5652C85.4178 109.324 86.1889 108.816 86.5245 108.032C86.9366 107.071 96.6274 84.2782 97.8431 65.7436C98.0204 63.0432 97.8489 60.4428 97.4259 57.9314C97.4209 57.8923 97.4142 57.854 97.4068 57.8148ZM29.4335 20.4967C29.7932 12.7694 27.9147 7.57181 26.1369 4.44677H81.5134C79.7348 7.57181 77.8571 12.7694 78.2168 20.4967C78.4991 26.5719 81.7624 32.5955 85.2155 38.9721C85.9349 40.2994 86.6577 41.6351 87.3621 42.9815C79.6132 48.6637 67.2488 52.0202 53.8252 52.0202C40.4015 52.0202 28.0371 48.6637 20.2882 42.9815C20.9926 41.6351 21.7154 40.2994 22.434 38.9721C25.8888 32.5955 29.1512 26.5719 29.4335 20.4967ZM14.4761 58.3128C15.1863 54.3118 16.6277 50.5172 18.3605 46.841C26.8597 52.7871 39.862 56.2836 53.8252 56.2836C67.7892 56.2836 80.7906 52.7863 89.2898 46.841C90.8777 50.21 92.22 53.6789 92.9802 57.3152L58.9953 83.4289C55.7878 85.8936 50.2538 85.8045 46.9106 83.2357L14.4761 58.3128ZM93.5889 65.4647C92.5814 80.8284 85.2013 99.9676 83.1396 105.061H55.9568V89.2343C58.0735 88.8488 60.0128 88.0228 61.5924 86.8096L93.6131 62.2056C93.6647 63.2756 93.6614 64.3605 93.5889 65.4647Z" fill="#F5F5F5"/>
<path fill-rule="evenodd" clip-rule="evenodd" d="M53.826 42.096C55.0034 42.096 55.9577 41.1418 55.9577 39.9644V33.4744C55.9577 32.297 55.0034 31.3428 53.826 31.3428C52.6486 31.3428 51.6943 32.297 51.6943 33.4744V39.9644C51.6943 41.1418 52.6486 42.096 53.826 42.096Z" fill="#F5F5F5"/>
<path fill-rule="evenodd" clip-rule="evenodd" d="M12.1576 23.7049C11.3249 24.5376 11.3249 25.8874 12.1576 26.7192C12.5739 27.1356 13.1193 27.3438 13.6647 27.3438C14.2101 27.3438 14.7564 27.1356 15.1719 26.7192C15.1719 26.7192 21.3404 20.5507 21.3487 20.5424C21.8292 20.0619 22.0715 19.3483 21.9516 18.6764C21.8733 18.2367 21.6685 17.842 21.352 17.5248L15.1719 11.3446C14.34 10.5127 12.9902 10.5127 12.1576 11.3446C11.3249 12.1773 11.3249 13.5271 12.1576 14.3597L14.6989 16.9002H2.36604C1.18863 16.9002 0.234375 17.8545 0.234375 19.0319C0.234375 20.2093 1.18863 21.1636 2.36604 21.1636H14.6989L12.1576 23.7049Z" fill="#F5F5F5"/>
<path fill-rule="evenodd" clip-rule="evenodd" d="M105.287 16.9002H92.9545L95.495 14.3597C96.3277 13.5271 96.3277 12.1773 95.495 11.3446C94.6623 10.5127 93.3134 10.5127 92.4807 11.3446L86.3005 17.5248C85.7368 18.0877 85.4961 19.0203 85.7984 19.7713C85.9141 20.0586 86.0832 20.3217 86.3005 20.5391L92.4807 26.7192C92.897 27.1356 93.4424 27.3438 93.9878 27.3438C94.5332 27.3438 95.0787 27.1356 95.495 26.7192C96.3277 25.8874 96.3277 24.5376 95.495 23.7049L92.9536 21.1636H105.287C106.464 21.1636 107.418 20.2093 107.418 19.0319C107.418 17.8545 106.464 16.9002 105.287 16.9002Z" fill="#F5F5F5"/>
<path fill-rule="evenodd" clip-rule="evenodd" d="M18.11 86.7948C18.11 85.6207 17.1524 84.6631 15.9783 84.6631C14.8043 84.6631 13.8467 85.6207 13.8467 86.7948C13.8467 87.9688 14.8043 88.9264 15.9783 88.9264C17.1524 88.9264 18.11 87.9688 18.11 86.7948Z" fill="#F5F5F5"/>
</svg>
